/* XPM */
static char *_c36b67533c14070d868676b15a4417bjBNR7TA28NDHNQZs[] = {
/* columns rows colors chars-per-pixel */
"48 48 89 1 ",
"  c None",
". c #12130F",
"X c #151210",
"o c #191614",
"O c #171A16",
"+ c #1A1916",
"@ c #181718",
"# c #1C1C1A",
"$ c #221D1B",
"% c #1E221D",
"& c #24211E",
"* c #1D1F21",
"= c #1F2226",
"- c #1F2730",
"; c #242423",
": c #2A2523",
"> c #262A24",
", c #2D2925",
"< c #24262A",
"1 c #23282D",
"2 c #2B2B2A",
"3 c #312A27",
"4 c #332D2A",
"5 c #2D312B",
"6 c #34342E",
"7 c #38312E",
"8 c #232B32",
"9 c #232F3A",
"0 c #2A3339",
"q c #353532",
"w c #3A3734",
"e c #343833",
"r c #3C3B35",
"t c #3C3C3B",
"y c #394337",
"u c #3F403F",
"i c #40433F",
"p c #243442",
"a c #263748",
"s c #263A4B",
"d c #283C4E",
"f c #293F52",
"g c #2A4156",
"h c #2C465D",
"j c #2E4B65",
"k c #2F4D69",
"l c #304F6A",
"z c #31516D",
"x c #335674",
"c c #335877",
"v c #345B7B",
"b c #444444",
"n c #464946",
"m c gray30",
"M c #355F81",
"N c #376285",
"B c #396385",
"V c #376489",
"C c #38658A",
"Z c #39698E",
"A c #3B6C93",
"S c #3B6F98",
"D c #3F7096",
"F c #3D729C",
"G c #3E76A2",
"H c #3E79A6",
"J c #416E91",
"K c #437396",
"L c #43759B",
"P c #46789E",
"I c #4177A0",
"U c #447AA3",
"Y c #487EA6",
"T c #447EA9",
"R c #4A80A7",
"E c #4682AE",
"W c #4A83AD",
"Q c #4784B2",
"! c #4A86B2",
"~ c #4B89B5",
"^ c #4D8CBA",
"/ c #508FBC",
"( c #5091BF",
") c #5495C3",
"_ c #5799C7",
"` c #5B9DCB",
"' c #5EA0CD",
"] c #61A2CE",
"[ c #64A6D0",
/* pixels */
"                                                ",
"                                                ",
"                       kzz                      ",
"                    jxZMSAcj                    ",
"                  xASGQZ~QHFSx                  ",
"                jxSQ!!LJALW!!Gxz                ",
"               cAFLKZCvvzvNZFLPLv               ",
"             jATELvvvxxzjxccccLQEFj             ",
"            kATTJMxllgf11dgjlxvZYQFk            ",
"            VTTAMzap9$$$;#$8palvBTTA            ",
"           xTYCvj9:,,,77w73,,:8hvBTTv           ",
"          zxLCcg1,773:o$+$::7w,,fxMSxx          ",
"          FEvMd<3:$$XXXXXXXXo$$4>pvcTHz         ",
"         vIYvg:3,XXXXXXXXXXXXXo$4:sxUEN         ",
"         vRAx-3,XXXXXXXXXXXXXXXo:7#zN^Zl        ",
"       !vxPZz;,;XXXXXXXXXXXXXXXX$3#zv^NvW       ",
"       vYBLZz<4:$oXXXXXXXXXXXXXo26&lB!NUZ       ",
"       xCBBMl<3@%+XXXXXXXXXXXX@45w&jxJvBx       ",
"        vCMCv<3@O#XXXXXXXXXXXX+2er&jxvAZv       ",
"        llllj<:&2XX.XXXXXXXXXX+b66#jjzzl        ",
"         zvll<:3i;XXXXXXXXXXXX2m56$llvc         ",
"         cCxl<$wb>oXXXXXXXXXXX,n26$zzCZ         ",
"         MALx14tb;oXXXXXXXXXXX;t5r:xcSU         ",
"         MGPz=4wu;oXXXXXXXXXXo<b6w$zMFL         ",
"         cHZk<3wq;oXX.XXXXXXX@2mn6&lvHZ         ",
"         cFVk<,qq:oXXXXXXXXXXo$qb6&jvFZ         ",
"         cTMz<,q,#XXXXXXXXXXXXX;iw&zcHZ         ",
"         c!Mc<,6<.XXXXXXXXXXXX#;e7&xcHZ         ",
"         c!vx14,2$XXXXXXXXXXXX2ner&xxHZ         ",
"         xHvz13wd$XXXXX.XXXXXX,ber&zxFZ         ",
"         vZxx,4,rXXXXXXXXXXXXX#;5r$xzNC         ",
"        jzxlk<,:r$XXXXXXXXXXXX#<5w$ljxxj        ",
"        xIPDI0&&&#.XXXXXXXXXXX&e56$TPHFD        ",
"        vW^W!8&&&#XXXXXX.XXXXX#O56+Y!W!P        ",
"       KANvNv<,&%#XXXXXXXXXXXX#>>w#vvNNN        ",
"       TWW^^^04%&+XXX.XXX.XXX.X#>r&!^^~!T       ",
"       LNSFAC86&%%..XXXXXXXXXXX55i&BDZZVZ)      ",
"       KcvNxx=&;;+..XX.XXXXXXXX>y6#zxvNvZ)      ",
"       /IIHIY1&&&@.XXXXXX.XXXXX+54+RUUII^`      ",
"       !~~~~R8&&oXXXXXXXXXXXXXXo&&+RQ~~EWL      ",
"       VHHGAV-##@@@@@@@@@@@@@@@@@##CZGGFCl      ",
"       MVVNMxfjkjhghjjhhhhjhhghjjjscvBMBNk      ",
"       zzcxxccSFSAxNSFSSASSSZcMAZVclxxxxxj      ",
"       cFQQTHQQQQHVH^__^^)))QZZE!TTKSSSSCk      ",
"       Z)``]_]```~ST))_```]['WT)_]`]`_)^Iz      ",
"       STWWWWWWWWUAFSFIWWWWWWLSFGWWWWWWWYN      ",
"                                                ",
"                                                "
};
