/* XPM */
static char *ff8c350c99a64602e4964d3bcc228d06MPg9ZOnaRdLNLWCS[] = {
/* columns rows colors chars-per-pixel */
"48 48 92 1 ",
"  c None",
". c #151210",
"X c #191615",
"o c #1B1917",
"O c #181718",
"+ c #1D1D1B",
"@ c #211D1C",
"# c #1E211D",
"$ c #23221E",
"% c #28221F",
"& c #1A1D20",
"* c #1F2322",
"= c #1F2428",
"- c #252422",
"; c #2A2523",
": c #252A23",
"> c #2D2A26",
", c #23262A",
"< c #24282D",
"1 c #2B2D2A",
"2 c #302A26",
"3 c #342D2A",
"4 c #2D322C",
"5 c #34342E",
"6 c #39322E",
"7 c #222B32",
"8 c #232F3A",
"9 c #25303A",
"0 c #2A353E",
"q c #343533",
"w c #383731",
"e c #373837",
"r c #3C3B35",
"t c #3D3D3B",
"y c #3C443B",
"u c #253645",
"i c #273B4D",
"p c #293D4F",
"a c #283F54",
"s c #2A4256",
"d c #2C465D",
"f c #2E4B65",
"g c #2F4E69",
"h c #304F6A",
"j c #31516D",
"k c #325674",
"l c #335877",
"z c #345B7B",
"x c #385F7F",
"c c #434443",
"v c #474846",
"b c #484947",
"n c #4D4D4D",
"m c #504F4F",
"M c #505150",
"N c #585858",
"B c #686968",
"V c #355F81",
"C c #376285",
"Z c #396285",
"A c #376589",
"S c #39668A",
"D c #3B698E",
"F c #3A6C93",
"G c #3C6F98",
"H c #3F7197",
"J c #3C729C",
"K c #3D76A2",
"L c #3E78A5",
"P c #426E91",
"I c #427195",
"U c #42759C",
"Y c #46799E",
"T c #4177A0",
"R c #437AA4",
"E c #497EA4",
"W c #427DAA",
"Q c #4681AD",
"! c #4A83AD",
"~ c #4684B2",
"^ c #4986B2",
"/ c #4B88B5",
"( c #4D8CBA",
") c #508AB3",
"_ c #4F90BE",
"` c #5190BE",
"' c #5495C3",
"] c #5899C7",
"[ c #5A9DCB",
"{ c #5EA1CD",
"} c #61A2CE",
"| c #64A6D0",
/* pixels */
"                                                ",
"                                                ",
"                       hjj                      ",
"                    fkSVGFkg                    ",
"                  hGGK~F~~WJGl                  ",
"                fjG~//UPDU!~~Rlh                ",
"               kFJUISZzzjzZSGUYUzj              ",
"             fFW~TxlzlkkfkkzzzI~QJh             ",
"            gDWWGxkhhsa7<isfhkzDR~Jg            ",
"            SW~Fzjiu8@@@;@&<uufzSR~F            ",
"           jRESzf8;2;23666322;<dzZT~z           ",
"          jlUZld12662;@Xoo;;662>ikCGlk          ",
"          JQzVa,3;@X........X@@3;8xlRKk         ",
"         zU!zs-2;X.............%3;ukT~A         ",
"         lEFk7>2................-6&gC(Fg        ",
"       )VkUDk=;;...............@>3ofx(ZzE       ",
"       xESIFk<3;@@.............+4>;fC~xTD       ",
"       jCZZxg<>;p@............#+-r;fkDxCl       ",
"        zCAAz,3;v#............#15r$flxDDC       ",
"        jjjff,;$v%............Oq:5@ffhjj        ",
"         jljh,;X>5O...........tv#w+fhzz         ",
"         kSkh,%ovw-..........+MN15$fjSD         ",
"         xGUl<q;Bt:X.........+tM>t>klGE         ",
"         xJYh,3@vb>X.........-tv#w@fxJT         ",
"         kLFj,3>pc>X.........-ec>6$fzKF         ",
"         kJSg,2tm1>X.........>1qy5$gVJF         ",
"         kRCj,3qc@X..........@&qcr$jlKF         ",
"         k~Zl,>>c@...........O@tyr%jkKF         ",
"         k/Zl<3;nwo..........@ebqy%kkKF         ",
"         kKzj<3>c6$..........@uc:r$fkGF         ",
"         lSkj<3-4t-..........@c24t-gkVS         ",
"        fjkhh<>-#e;..........-M>>w-gfkkf        ",
"        kUYHT9>@#:-..........$w:4w$TTTTIk       ",
"        l!(~!9%+#o#..........##::w+Y!!^Yj       ",
"       PHClCx<>+##o..........#*#:w@zVVxZP       ",
"       W!!(((06$##............##:r$!(((~E       ",
"       UxFJFA76-*#X...........#$:y$CFFFAD(      ",
"       UkxCkj<;-*#X...........#:y6+jjxxzD'      ",
"       `LRYLR7;$#O............O*54oYTERR(]      ",
"       !///^!9$$#X............X:44@Y~/~Q!U      ",
"       AKLKFC7+*+OOXOOOOOXOOOO++*-oZFJKJSj      ",
"       VAACxlsfgfdsfffdddfdddsddddakzCCZZh      ",
"       jjlllllDKGFlCGJGFFGGGDlVFFCzjkkkkkf      ",
"       lJQQQL~~~^LAK('''('''~FDQ/QWIGGGGSj      ",
"       S'[[}]{[[[(FW'''[[[}|}!W`'}{}[]'(Rk      ",
"       FE!!!!!!!!RGGGJT!!!!!!TGJTW)!!!!!EZ      ",
"                                                ",
"                                                "
};
