/* XPM */
static char *result[] = {
/* columns rows colors chars-per-pixel */
"48 48 4 1 ",
"  c #52505E",
". c #696975",
"X c #828389",
"o c #9B9593",
/* pixels */
"   ...XXXXXXXXXXXXXXXXXXXXXXXXXXXXXXXXX......   ",
"   ...XXXXXXXXXXXXXXXXXXXXXXXXXXXXXXXXX......   ",
"   ...XXXXXXXXXXXXXXXXXXXXXXXXXXXXXXXXX......   ",
"XXXXXXoooooooooooooooooooooooooooooooooXXX...   ",
"XXXXXXoooooooooooooooooooooooooooooooooXXX...   ",
"XXXXXXoooooooooooooooooooooooooooooooooXXX...   ",
"oooooooooooooooXXXXXXXXXXXXXXXXXXXXX......      ",
"oooooooooooooooXXXXXXXXXXXXXXXXXXXXX......      ",
"oooooooooooooooXXXXXXXXXXXXXXXXXXXXX......      ",
"oooooooooXXXXXXXXXXXXXXXXXXXXXXXX......         ",
"oooooooooXXXXXXXXXXXXXXXXXXXXXXXX......         ",
"oooooooooXXXXXXXXXXXXXXXXXXXXXXXX......         ",
"ooooooXXXXXXXXXXXXXXXXXXXXXXXXXXXoooooo...      ",
"ooooooXXXXXXXXXXXXXXXXXXXXXXXXXXXoooooo...      ",
"ooooooXXXXXXXXXXXXXXXXXXXXXXXXXXXoooooo...      ",
"oooXXXXXXXXXXXXXXXXXXXXXXXXXXXXXXXXXXXX......   ",
"oooXXXXXXXXXXXXXXXXXXXXXXXXXXXXXXXXXXXX......   ",
"oooXXXXXXXXXXXXXXXXXXXXXXXXXXXXXXXXXXXX......   ",
"oooXXXXXXXXXXXXXXXXXXXXXXXXXXXXXXXXXXXXXXX...   ",
"oooXXXXXXXXXXXXXXXXXXXXXXXXXXXXXXXXXXXXXXX...   ",
"oooXXXXXXXXXXXXXXXXXXXXXXXXXXXXXXXXXXXXXXX...   ",
"oooXXXXXXXXXXXXXXXXXXXXXXXXXXXXXXXXXXXXXXX...   ",
"oooXXXXXXXXXXXXXXXXXXXXXXXXXXXXXXXXXXXXXXX...   ",
"oooXXXXXXXXXXXXXXXXXXXXXXXXXXXXXXXXXXXXXXX...   ",
"XXXXXXXXXXXXXXXXXXXXXXXXXXXXXX............      ",
"XXXXXXXXXXXXXXXXXXXXXXXXXXXXXX............      ",
"XXXXXXXXXXXXXXXXXXXXXXXXXXXXXX............      ",
"XXXXXXXXXXXXXXXXXXXXXXXXXXXXXXXXXoooooo......   ",
"XXXXXXXXXXXXXXXXXXXXXXXXXXXXXXXXXoooooo......   ",
"XXXXXXXXXXXXXXXXXXXXXXXXXXXXXXXXXoooooo......   ",
"XXXXXXXXXXXX...XXXXXXXXXXXXXXXXXXXXXXXXXXXooo   ",
"XXXXXXXXXXXX...XXXXXXXXXXXXXXXXXXXXXXXXXXXooo   ",
"XXXXXXXXXXXX...XXXXXXXXXXXXXXXXXXXXXXXXXXXooo   ",
"XXXXXX......oooXXXXXXXXXXXXXXXXXXXXXXXXXXXXXX   ",
"XXXXXX......oooXXXXXXXXXXXXXXXXXXXXXXXXXXXXXX   ",
"XXXXXX......oooXXXXXXXXXXXXXXXXXXXXXXXXXXXXXX   ",
".........oooXXXXXXXXXXXXXXXXXXXXXXXXXXXXXX...   ",
".........oooXXXXXXXXXXXXXXXXXXXXXXXXXXXXXX...   ",
".........oooXXXXXXXXXXXXXXXXXXXXXXXXXXXXXX...   ",
"      ...XXXXXXXXXXXXXXXXXXXXXXXXXXXXXX......   ",
"      ...XXXXXXXXXXXXXXXXXXXXXXXXXXXXXX......   ",
"      ...XXXXXXXXXXXXXXXXXXXXXXXXXXXXXX......   ",
"      .........XXXXXXXXXXXXXXXXXX.........      ",
"      .........XXXXXXXXXXXXXXXXXX.........      ",
"      .........XXXXXXXXXXXXXXXXXX.........      ",
"                                                ",
"                                                ",
"                                                "
};
