/* XPM */
static char *result[] = {
/* columns rows colors chars-per-pixel */
"48 48 4 1 ",
"  c #52505E",
". c #696975",
"X c #828389",
"o c #9B9593",
/* pixels */
"   ............XXXXXXXXX   XXXXXXXXXXXX...      ",
"   ............XXXXXXXXX   XXXXXXXXXXXX...      ",
"   ............XXXXXXXXX   XXXXXXXXXXXX...      ",
"............XXXooooooooo...ooooooooooooXXX...   ",
"............XXXooooooooo...ooooooooooooXXX...   ",
"............XXXooooooooo...ooooooooooooXXX...   ",
"............XXXXXXXXXXXX...ooooooXXXXXXXXX...   ",
"............XXXXXXXXXXXX...ooooooXXXXXXXXX...   ",
"............XXXXXXXXXXXX...ooooooXXXXXXXXX...   ",
"............XXXXXXXXX...   oooXXXXXXXXXXXX...   ",
"............XXXXXXXXX...   oooXXXXXXXXXXXX...   ",
"............XXXXXXXXX...   oooXXXXXXXXXXXX...   ",
"   .........XXX......   oooXXXXXXXXXXXXXXX...   ",
"   .........XXX......   oooXXXXXXXXXXXXXXX...   ",
"   .........XXX......   oooXXXXXXXXXXXXXXX...   ",
"      ............oooXXXXXXXXXXXXXXXXXXXXX...   ",
"      ............oooXXXXXXXXXXXXXXXXXXXXX...   ",
"      ............oooXXXXXXXXXXXXXXXXXXXXX...   ",
"............XXXXXXXXXXXXXXXXXXXXXXXXXXXXXXXXX   ",
"............XXXXXXXXXXXXXXXXXXXXXXXXXXXXXXXXX   ",
"............XXXXXXXXXXXXXXXXXXXXXXXXXXXXXXXXX   ",
"............XXXXXXXXXXXXXXXXXXXXXXXXXXXXXXXXX   ",
"............XXXXXXXXXXXXXXXXXXXXXXXXXXXXXXXXX   ",
"............XXXXXXXXXXXXXXXXXXXXXXXXXXXXXXXXX   ",
"............XXXXXXXXXXXX...XXXXXXXXXXXXXXXXXX   ",
"............XXXXXXXXXXXX...XXXXXXXXXXXXXXXXXX   ",
"............XXXXXXXXXXXX...XXXXXXXXXXXXXXXXXX   ",
"............XXXXXXXXXXXXoooXXXXXXXXXXXXXXXXXX   ",
"............XXXXXXXXXXXXoooXXXXXXXXXXXXXXXXXX   ",
"............XXXXXXXXXXXXoooXXXXXXXXXXXXXXXXXX   ",
"............XXXXXXXXXXXXXXXXXXXXXXXXXXXXXX...   ",
"............XXXXXXXXXXXXXXXXXXXXXXXXXXXXXX...   ",
"............XXXXXXXXXXXXXXXXXXXXXXXXXXXXXX...   ",
"............XXXXXXXXXXXXXXXXXXXXXXXXXXX......   ",
"............XXXXXXXXXXXXXXXXXXXXXXXXXXX......   ",
"............XXXXXXXXXXXXXXXXXXXXXXXXXXX......   ",
"............XXXXXXXXXXXXXXXXXXXXXXXX.........   ",
"............XXXXXXXXXXXXXXXXXXXXXXXX.........   ",
"............XXXXXXXXXXXXXXXXXXXXXXXX.........   ",
"   ............XXXXXXXXXXXXXXXXXXXXX......      ",
"   ............XXXXXXXXXXXXXXXXXXXXX......      ",
"   ............XXXXXXXXXXXXXXXXXXXXX......      ",
"         ...............XXXXXXXXX......         ",
"         ...............XXXXXXXXX......         ",
"         ...............XXXXXXXXX......         ",
"                                                ",
"                                                ",
"                                                "
};
