/* XPM */
static char *result[] = {
/* columns rows colors chars-per-pixel */
"48 48 4 1 ",
"  c #52505E",
". c #696975",
"X c #828389",
"o c #9B9593",
/* pixels */
"      ...XXXXXXXXXXXXXXXXXXXXXXXXXXXXXX......   ",
"      ...XXXXXXXXXXXXXXXXXXXXXXXXXXXXXX......   ",
"      ...XXXXXXXXXXXXXXXXXXXXXXXXXXXXXX......   ",
"......XXXooooooooooooooooooooooooooooooXXX...   ",
"......XXXooooooooooooooooooooooooooooooXXX...   ",
"......XXXooooooooooooooooooooooooooooooXXX...   ",
"...XXXoooooooooXXXXXXXXXXXXXXXXXXXXXXXXXXX...   ",
"...XXXoooooooooXXXXXXXXXXXXXXXXXXXXXXXXXXX...   ",
"...XXXoooooooooXXXXXXXXXXXXXXXXXXXXXXXXXXX...   ",
"...XXXooooooXXXXXXXXXXXXXXXXXXXXXXXXXXXXXX...   ",
"...XXXooooooXXXXXXXXXXXXXXXXXXXXXXXXXXXXXX...   ",
"...XXXooooooXXXXXXXXXXXXXXXXXXXXXXXXXXXXXX...   ",
"...XXXooooooXXXXXXXXXXXXXXXXXXXXXXXXXXXXXX...   ",
"...XXXooooooXXXXXXXXXXXXXXXXXXXXXXXXXXXXXX...   ",
"...XXXooooooXXXXXXXXXXXXXXXXXXXXXXXXXXXXXX...   ",
"......oooXXXXXXXXXXXXXXXXXXXXXXXXXXXXXXXXX...   ",
"......oooXXXXXXXXXXXXXXXXXXXXXXXXXXXXXXXXX...   ",
"......oooXXXXXXXXXXXXXXXXXXXXXXXXXXXXXXXXX...   ",
"   ...oooXXXXXXXXXXXX...XXXXXXXXXXXXXXXXXX...   ",
"   ...oooXXXXXXXXXXXX...XXXXXXXXXXXXXXXXXX...   ",
"   ...oooXXXXXXXXXXXX...XXXXXXXXXXXXXXXXXX...   ",
"   ...oooXXXXXXXXXXXXoooXXXXXXXXXXXXXXXXXX...   ",
"   ...oooXXXXXXXXXXXXoooXXXXXXXXXXXXXXXXXX...   ",
"   ...oooXXXXXXXXXXXXoooXXXXXXXXXXXXXXXXXX...   ",
"...XXXoooXXXXXXXXXXXXXXXXXXXXXXXXXXXXXX...      ",
"...XXXoooXXXXXXXXXXXXXXXXXXXXXXXXXXXXXX...      ",
"...XXXoooXXXXXXXXXXXXXXXXXXXXXXXXXXXXXX...      ",
"...oooXXXXXXXXXXXXXXXXXXXXXXXXXXXXXX.........   ",
"...oooXXXXXXXXXXXXXXXXXXXXXXXXXXXXXX.........   ",
"...oooXXXXXXXXXXXXXXXXXXXXXXXXXXXXXX.........   ",
"XXXoooXXXXXXXXXXXXXXXXXXXXXXXXXXX...ooooooXXX   ",
"XXXoooXXXXXXXXXXXXXXXXXXXXXXXXXXX...ooooooXXX   ",
"XXXoooXXXXXXXXXXXXXXXXXXXXXXXXXXX...ooooooXXX   ",
"XXXoooXXXXXXXXXXXXXXXXXXXXXXXXXXXoooXXXXXXXXX   ",
"XXXoooXXXXXXXXXXXXXXXXXXXXXXXXXXXoooXXXXXXXXX   ",
"XXXoooXXXXXXXXXXXXXXXXXXXXXXXXXXXoooXXXXXXXXX   ",
"...XXXXXXXXXXXXXXXXXXXXXXXXXXXXXXXXXXXXXXX...   ",
"...XXXXXXXXXXXXXXXXXXXXXXXXXXXXXXXXXXXXXXX...   ",
"...XXXXXXXXXXXXXXXXXXXXXXXXXXXXXXXXXXXXXXX...   ",
"   ......XXXXXXXXXXXXXXXXXXXXXXXXXXXXXX......   ",
"   ......XXXXXXXXXXXXXXXXXXXXXXXXXXXXXX......   ",
"   ......XXXXXXXXXXXXXXXXXXXXXXXXXXXXXX......   ",
"      .........XXXXXXXXXXXXXXXXXX.........      ",
"      .........XXXXXXXXXXXXXXXXXX.........      ",
"      .........XXXXXXXXXXXXXXXXXX.........      ",
"                                                ",
"                                                ",
"                                                "
};
