/* XPM */
static char *result[] = {
/* columns rows colors chars-per-pixel */
"48 48 4 1 ",
"  c #52505E",
". c #696975",
"X c #828389",
"o c #9B9593",
/* pixels */
"   ............XXXXXXXXXXXXXXXXXXXXXXXX...      ",
"   ............XXXXXXXXXXXXXXXXXXXXXXXX...      ",
"   ............XXXXXXXXXXXXXXXXXXXXXXXX...      ",
"............XXXooooooooooooooooooooooooXXX...   ",
"............XXXooooooooooooooooooooooooXXX...   ",
"............XXXooooooooooooooooooooooooXXX...   ",
"............XXXXXXXXXXXXXXXXXXXXXXXXXXXXXX...   ",
"............XXXXXXXXXXXXXXXXXXXXXXXXXXXXXX...   ",
"............XXXXXXXXXXXXXXXXXXXXXXXXXXXXXX...   ",
"............XXXXXXXXXXXXXXXXXXXXXXXXXXXXXX...   ",
"............XXXXXXXXXXXXXXXXXXXXXXXXXXXXXX...   ",
"............XXXXXXXXXXXXXXXXXXXXXXXXXXXXXX...   ",
"............XXXXXXXXXXXXXXXXXXXXXXXXXXXXXX...   ",
"............XXXXXXXXXXXXXXXXXXXXXXXXXXXXXX...   ",
"............XXXXXXXXXXXXXXXXXXXXXXXXXXXXXX...   ",
"............XXXXXXXXXXXXXXXXXXXXXXXXXXXXXX...   ",
"............XXXXXXXXXXXXXXXXXXXXXXXXXXXXXX...   ",
"............XXXXXXXXXXXXXXXXXXXXXXXXXXXXXX...   ",
"............XXXXXXXXXXXXXXXXXXXXXXXXXXXXXXXXX   ",
"............XXXXXXXXXXXXXXXXXXXXXXXXXXXXXXXXX   ",
"............XXXXXXXXXXXXXXXXXXXXXXXXXXXXXXXXX   ",
"............XXXXXXXXXXXXXXXXXXXXXXXXXXXXXXXXX   ",
"............XXXXXXXXXXXXXXXXXXXXXXXXXXXXXXXXX   ",
"............XXXXXXXXXXXXXXXXXXXXXXXXXXXXXXXXX   ",
"............XXXXXXXXXXXXXXXXXXXXXXXXXXXXXXXXX   ",
"............XXXXXXXXXXXXXXXXXXXXXXXXXXXXXXXXX   ",
"............XXXXXXXXXXXXXXXXXXXXXXXXXXXXXXXXX   ",
"............XXXXXXXXXXXXXXXXXXXXXXXXXXXXXXXXX   ",
"............XXXXXXXXXXXXXXXXXXXXXXXXXXXXXXXXX   ",
"............XXXXXXXXXXXXXXXXXXXXXXXXXXXXXXXXX   ",
"............XXXXXXXXXXXXXXXXXXXXXXXXXXXXXX...   ",
"............XXXXXXXXXXXXXXXXXXXXXXXXXXXXXX...   ",
"............XXXXXXXXXXXXXXXXXXXXXXXXXXXXXX...   ",
"............XXXXXXXXXXXXXXXXXXXXXXXXXXX......   ",
"............XXXXXXXXXXXXXXXXXXXXXXXXXXX......   ",
"............XXXXXXXXXXXXXXXXXXXXXXXXXXX......   ",
"............XXXXXXXXXXXXXXXXXXXXXXXX.........   ",
"............XXXXXXXXXXXXXXXXXXXXXXXX.........   ",
"............XXXXXXXXXXXXXXXXXXXXXXXX.........   ",
"   ............XXXXXXXXXXXXXXXXXXXXX......      ",
"   ............XXXXXXXXXXXXXXXXXXXXX......      ",
"   ............XXXXXXXXXXXXXXXXXXXXX......      ",
"         ...............XXXXXXXXX......         ",
"         ...............XXXXXXXXX......         ",
"         ...............XXXXXXXXX......         ",
"                                                ",
"                                                ",
"                                                "
};
