/* XPM */
static char *result[] = {
/* columns rows colors chars-per-pixel */
"48 48 4 1 ",
"  c #52505E",
". c #696975",
"X c #828389",
"o c #9B9593",
/* pixels */
"                                                ",
"                                                ",
"                                                ",
"   .......................................      ",
"   .......................................      ",
"   .......................................      ",
".............................................   ",
".............................................   ",
".............................................   ",
".............................................   ",
".............................................   ",
".............................................   ",
"XXXXXXXXXXXXXXXXXXXXXXXXXXXXXXXXXXXXXXX......   ",
"XXXXXXXXXXXXXXXXXXXXXXXXXXXXXXXXXXXXXXX......   ",
"XXXXXXXXXXXXXXXXXXXXXXXXXXXXXXXXXXXXXXX......   ",
"oooXXXXXXXXXXXXXXXXXXXXXXXXXXXXXXXXXXXXXXX...   ",
"oooXXXXXXXXXXXXXXXXXXXXXXXXXXXXXXXXXXXXXXX...   ",
"oooXXXXXXXXXXXXXXXXXXXXXXXXXXXXXXXXXXXXXXX...   ",
"oooXXXXXXXXXXXXXXXXXXXXXXXXXXXXXXXXXXXXXXX...   ",
"oooXXXXXXXXXXXXXXXXXXXXXXXXXXXXXXXXXXXXXXX...   ",
"oooXXXXXXXXXXXXXXXXXXXXXXXXXXXXXXXXXXXXXXX...   ",
"oooXXXXXXXXXXXXXXXXXXXXXXXXXXXXXXooooooXXXXXX   ",
"oooXXXXXXXXXXXXXXXXXXXXXXXXXXXXXXooooooXXXXXX   ",
"oooXXXXXXXXXXXXXXXXXXXXXXXXXXXXXXooooooXXXXXX   ",
"oooXXXXXXXXXXXXXXXXXXXXXXXXXXXoooooooooXXXXXX   ",
"oooXXXXXXXXXXXXXXXXXXXXXXXXXXXoooooooooXXXXXX   ",
"oooXXXXXXXXXXXXXXXXXXXXXXXXXXXoooooooooXXXXXX   ",
"XXXXXXXXXXXX...XXXXXXXXXXXXXXXooooooXXXXXXXXX   ",
"XXXXXXXXXXXX...XXXXXXXXXXXXXXXooooooXXXXXXXXX   ",
"XXXXXXXXXXXX...XXXXXXXXXXXXXXXooooooXXXXXXXXX   ",
"oooXXXXXXXXXoooXXXXXXXXXXXXXXXoooXXXXXXXXX...   ",
"oooXXXXXXXXXoooXXXXXXXXXXXXXXXoooXXXXXXXXX...   ",
"oooXXXXXXXXXoooXXXXXXXXXXXXXXXoooXXXXXXXXX...   ",
"XXXXXXXXXXXXXXXXXXXXXXXXXXXXXXXXXXXXXXX......   ",
"XXXXXXXXXXXXXXXXXXXXXXXXXXXXXXXXXXXXXXX......   ",
"XXXXXXXXXXXXXXXXXXXXXXXXXXXXXXXXXXXXXXX......   ",
"...XXXXXXXXXXXXXXXXXXXXXXXXXXXXXXXXX.........   ",
"...XXXXXXXXXXXXXXXXXXXXXXXXXXXXXXXXX.........   ",
"...XXXXXXXXXXXXXXXXXXXXXXXXXXXXXXXXX.........   ",
"   ............XXXXXXXXXXXXXXXXXXXXX......      ",
"   ............XXXXXXXXXXXXXXXXXXXXX......      ",
"   ............XXXXXXXXXXXXXXXXXXXXX......      ",
"         ...............XXXXXXXXX......         ",
"         ...............XXXXXXXXX......         ",
"         ...............XXXXXXXXX......         ",
"                                                ",
"                                                ",
"                                                "
};
