/* XPM */
static char *f6e1b2c10c854e7ffef27e42eeabd4c82iqMBp6awP57xpJo[] = {
/* columns rows colors chars-per-pixel */
"48 48 6 1 ",
"  c #828389",
". c #9A9492",
"X c #53515F",
"o c #6A6A76",
"O c #676773",
"+ c #6D6D78",
/* pixels */
"XXXOoo                                 oooooOXXX",
"XXXOoo                                 oooOoOXXX",
"XXXoo+                                 +oooooXXX",
"      .................................      XXX",
"      .................................      XXX",
"      .................................      XXX",
"...............                        ......XXX",
"...............                        ......XXX",
"...............                        ......XXX",
".........                                 ...XXX",
".........                                 ...XXX",
".........                                 ...XXX",
"............                        .........XXX",
"............                        .........XXX",
"............                        .........XXX",
"...                              ............XXX",
"...                              ............XXX",
"...                              ............XXX",
"...                        ............      XXX",
"...                        ............      XXX",
"...                        ............      XXX",
"...         .........                        XXX",
"...         .........                        XXX",
"...         .........                        XXX",
"...............                              XXX",
"...............                              XXX",
"...............                              XXX",
".........                              +oooOOXXX",
".........                              oooooOXXX",
".........                              +++++oXXX",
"......                                 ......XXX",
"......                                 ......XXX",
"......                                 ......XXX",
"                        +oooo+...            XXX",
"                        ooooo+...            XXX",
"                        ooo+++...            XXX",
"oo+               oooooooo+...            oooXXX",
"ooo               ooooooOoo...            ooOXXX",
"OOo               ooOoOo+++...            ooOXXX",
"XXX         +oooooOooooo...            +ooOoOXXX",
"XXX         ooooOoooOoO+...            oooooOXXX",
"XXX+        oOOOOOoooooo...            oooOOOXXX",
"XXXXXXoooooOXXXXXXOoOooOo++      ooooooooOXXXXXX",
"XXXXXXOooooOXXXXXXOoooooooo      ooooooooOXXXXXX",
"XXXXXXOOOOOOXXXXXXOOOOOOOOo      OOOOOOOOOXXXXXX",
"XXXXXXXXXXXXXXXXXXXXXXXXXXXXXXXXXXXXXXXXXXXXXXXX",
"XXXXXXXXXXXXXXXXXXXXXXXXXXXXXXXXXXXXXXXXXXXXXXXX",
"XXXXXXXXXXXXXXXXXXXXXXXXXXXXXXXXXXXXXXXXXXXXXXXX"
};
