/* XPM */
static char *_afe013bd3eb435d8c18d124f2198192HIhNBu8KTmlNWJFI[] = {
/* columns rows colors chars-per-pixel */
"48 48 64 1 ",
"  c None",
". c #260101",
"X c #350101",
"o c #4B0707",
"O c #650000",
"+ c #730707",
"@ c #5E0823",
"# c #990000",
"$ c #A20909",
"% c #993300",
"& c #CC3333",
"* c #9E6031",
"= c #A37138",
"- c #D74C1C",
"; c #ED6E2E",
": c #FF9933",
"> c #FA9A39",
", c #FFCC33",
"< c #C78658",
"1 c #EE8F59",
"2 c #C28661",
"3 c #E5A965",
"4 c #2E53CC",
"5 c #69A1DB",
"6 c #B6B488",
"7 c #EDB58E",
"8 c #E6BF93",
"9 c #F5C69F",
"0 c #F7DCBF",
"q c #FFFFCC",
"w c #340000",
"e c #260212",
"r c #65092E",
"t c #9E0E0E",
"y c #CB3232",
"u c #330000",
"i c #460505",
"p c #660000",
"a c #B6411D",
"s c black",
"d c black",
"f c black",
"g c black",
"h c black",
"j c black",
"k c black",
"l c black",
"z c black",
"x c black",
"c c black",
"v c black",
"b c black",
"n c black",
"m c black",
"M c black",
"N c black",
"B c black",
"V c black",
"C c black",
"Z c black",
"A c black",
"S c black",
"D c black",
"F c black",
/* pixels */
"                                                ",
"                                                ",
"                                                ",
"                 77777      <37                 ",
"                  9973<1y++%=<<                 ",
"                   00<31y++#=<=                 ",
"                   98<1yapp+#<3                 ",
"            544    32<1$#ooo+&                  ",
"           5554     =3&#+222*$                  ",
"           55044    1&$+<6893=$                 ",
"            544     yy$%7=682<@                 ",
"             5      p+-=89998=                  ",
"            008      yy#%3332a                  ",
"            656        a#$yy$                   ",
"            544       79yt++aa                  ",
"           55 4      yy<2o++**                  ",
"            55      yyy+=2+a2=                  ",
"             6     yyyy+i===2oO                 ",
"            54    yyyyy+ii=2ui+                 ",
"             4   yyyyyy+ioiiio+y                ",
"             6  yyyyyyaouiiiiipyy               ",
"             0 yyyyyyy#%%*aaaa%ty;              ",
"             q;&yy&yyyOa->:,,:y+a-t             ",
"             0--yy&&y+o.uX<+a*Xo$;1;            ",
"            &0;-yyya+Oi.Xo<+a*iiO%y-            ",
"            &0&-yyy+OO.Xoo<+a*oX++a-            ",
"            &0a-&t++puXooo<+a*oow%a+            ",
"            &0<a&*++oXoooo<+a*ooi++*            ",
"             0-$%%%XXooooo<+a*oooi%7            ",
"            20*O+pwXo*oooo<+a*ooor+8            ",
"            279 p+Xo*2*ooi<+a*ioo<*=            ",
"            22<i&+i%%@=*o.<+a*uo<+o%            ",
"             8 iy%%%oooa*.<+a*o$+o+ao           ",
"             q .@=%Xiooo**<Oa*$+Xr2po           ",
"             q  .o<8=rrr+37773+*3<ri            ",
"             0   ..o=33<aXo@@X2*.uo             ",
"             6      Xi++++#@iue.                ",
"                      +pp+ oiii                 ",
"                      OOOO @@@@@                ",
"                      #####p@@@                 ",
"                      ++++  **                  ",
"                      332  22=                  ",
"                      99<  22                   ",
"                      99   222                  ",
"                      99                        ",
"                                                ",
"                                                ",
"                                                "
};
