/* XPM */
static char *result[] = {
/* columns rows colors chars-per-pixel */
"48 48 180 2 ",
"   c #260100",
".  c #2B0201",
"X  c #330302",
"o  c #3C0303",
"O  c #33020B",
"+  c #39090C",
"@  c #2A0113",
"#  c #370A17",
"$  c #430505",
"%  c #490505",
"&  c #480900",
"*  c #4A0A05",
"=  c #550606",
"-  c #5D0101",
";  c #540E0B",
":  c #4E1707",
">  c #46150C",
",  c #55120E",
"<  c #5B150C",
"1  c #511A0D",
"2  c #5C1B0C",
"3  c #410D10",
"4  c #440C1B",
"5  c #540E11",
"6  c #431517",
"7  c #4F1817",
"8  c #5E1813",
"9  c #650101",
"0  c #6C0202",
"q  c #630B0B",
"w  c #6B0E0B",
"e  c #710101",
"r  c #7D0000",
"t  c #750A09",
"y  c #7A0B0B",
"u  c #641B0C",
"i  c #6C1D0C",
"p  c #7A1B01",
"a  c #740F10",
"s  c #651412",
"d  c #6D1615",
"f  c #601E17",
"g  c #751313",
"h  c #7D1414",
"j  c #5A240D",
"k  c #4F2014",
"l  c #552316",
"z  c #5B291B",
"x  c #6F210A",
"c  c #77200D",
"v  c #75300D",
"b  c #672716",
"n  c #602518",
"m  c #662E1D",
"M  c #752715",
"N  c #6A321F",
"B  c #7B3A12",
"V  c #580728",
"C  c #61092C",
"Z  c #692B21",
"A  c #6D3525",
"S  c #7A3D26",
"D  c #784835",
"F  c #820000",
"G  c #851211",
"H  c #8A1213",
"J  c #911616",
"K  c #941B1B",
"L  c #9C1B1B",
"P  c #A21E1E",
"I  c #812B0D",
"U  c #942E08",
"Y  c #862B1A",
"T  c #8C371C",
"R  c #95371F",
"E  c #B72D0F",
"W  c #B72511",
"Q  c #BA2B14",
"!  c #A23613",
"~  c #B73719",
"^  c #9A2222",
"/  c #9C2923",
"(  c #8A3B26",
")  c #983027",
"_  c #A32524",
"`  c #AA2424",
"'  c #A42927",
"]  c #A42C2B",
"[  c #AC2929",
"{  c #B22626",
"}  c #B32924",
"|  c #B62929",
" . c #BA2A2A",
".. c #C33C19",
"X. c #C22E2E",
"o. c #C83E29",
"O. c #CC3333",
"+. c #CE3A34",
"@. c #99471A",
"#. c #9B4A1D",
"$. c #AC431F",
"%. c #AB551C",
"&. c #B7501F",
"*. c #874728",
"=. c #8E432B",
"-. c #96482A",
";. c #9C4A2C",
":. c #8B4C36",
">. c #8B4A3B",
",. c #944833",
"<. c #975538",
"1. c #A14D23",
"2. c #B35A20",
"3. c #BB4A34",
"4. c #B45534",
"5. c #9B6734",
"6. c #A7723A",
"7. c #C1561D",
"8. c #CB4727",
"9. c #D74A2C",
"0. c #D15E2C",
"q. c #D44032",
"w. c #D44B33",
"e. c #D84F39",
"r. c #C05339",
"t. c #DB5936",
"y. c #C96B3A",
"u. c #DB6D34",
"i. c #DC7938",
"p. c #825540",
"a. c #9E5842",
"s. c #9F6046",
"d. c #A36447",
"f. c #A86A4E",
"g. c #B6644C",
"h. c #AE7544",
"j. c #BA7C4D",
"k. c #B66F52",
"l. c #AC7355",
"z. c #AB7A5C",
"x. c #B07354",
"c. c #B87B5A",
"v. c #D04741",
"b. c #DD6F4E",
"n. c #BD8159",
"m. c #AB846F",
"M. c #B48766",
"N. c #BB9D7A",
"B. c #DF8642",
"V. c #D48E4C",
"C. c #C48852",
"Z. c #D08F54",
"A. c #E18257",
"S. c #C28662",
"D. c #C68B65",
"F. c #C78F6C",
"G. c #D28A68",
"H. c #C59967",
"J. c #D09D6F",
"K. c #DA9277",
"L. c #DEA777",
"P. c #DAA179",
"I. c #5B77BB",
"U. c #7795B9",
"Y. c #5883CE",
"T. c #6990C6",
"R. c #659EDD",
"E. c #989F9A",
"W. c #E4AD80",
"Q. c #EDB98B",
"!. c #F2BD8D",
"~. c #EEB993",
"^. c #FAC795",
"/. c #FFCC99",
"(. c #EBC7A0",
"). c #F1C4A0",
"_. c #FCDAAB",
"`. c #F4D3B3",
"'. c #F7DDC0",
"]. c None",
/* pixels */
"].].].].].].].].].].].].].].].].].].].].].].].].].].].].].].].].].].].].].].].].].].].].].].].].",
"].].].].].].].].].].].].].].].].].].].].].].].].].].].].].].].].].].].].].].].].].].].].].].].].",
"].].].].].].].].].].].].].].].].].].].].].].].].].].].].].].].].].].].].].].].].].].].].].].].].",
"].].].].].].].].].].].].].].].].].].].].].].].].].].].].].].].].].].].].].].].].].].].].].].].].",
"].].].].].].].].].].].].].].].].].].].].].].].].].].].].].].].].].].].].].].].].].].].].].].].].",
"].].].].].].].].].].].].].].].].].].].].].].].].].].].].].].].].].].].].].].].].].].].].].].].].",
"].].].].].].].].].].].].].].].].].].].].].~.].].].].].].].].].].].].].].].].].].].].].].].].].].",
"].].].].].].].].].].].].].].].].].].].].].`.).).].5.h.j.].].].].].].].].].].].].].].].].].].].].",
"].].].].].].].].].].].].].].].].].].].].].'.'.`.P.j.4.T *.].].].].].].].].].].].].].].].].].].].",
"].].].].].].].].].].].].].].].].].].].].].].`.(.J.Z.y.y w ].].].].].].].].].].].].].].].].].].].",
"].].].].].].].].].].].].].].].].].].].].].v.G.H.C.B.w.[ y e ].].].].].].].].].].].].].].].].].].",
"].].].].].].].].].].].].].].].].].].].].].O.3.6.V.t.O.' q F ].].].].].].].].].].].].].].].].].].",
"].].].].].].].].].].].].].].].].].].].].O.O.O.y.i.+.' a.:.; ].].].].].].].].].].].].].].].].].].",
"].].].].].].].].].].].].].].].].].].].].O.O.O.e.+._ R <.S.].].].].].].].].].].].].].].].].].].].",
"].].].].].].].].].].].].].].].].].].].].].O.X.| [ x 1.f.F.].].].].].].].].].].].].].].].].].].].",
"].].].].].].].].].].].].].].].].].].].].].^ K K ^ B *.Q.^.].].].].].].].].].].].].].].].].].].].",
"].].].].].].].].].].].].].].].].].].].].].].d _ h a d >.].].].].].].].].].].].].].].].].].].].].",
"].].].].].].].].].].].].].].].].].].].].].].].h g G H H ].].].].].].].].].].].].].].].].].].].].",
"].].].].].].].].].].].].].].].].].].].].].].].H J J / g.].].].].].].].].].].].].].].].].].].].].",
"].].].].].].].].].].].].].].].].].].].].].].9 0 H ` ) P.].].].R.Y.].].].].].].].].].].].].].].].",
"].].].].].].].].].].].].].].].].].].].].].0 t { O.O.[ <.].].U.T.I.].].].].].].].].].].].].].].].",
"].].].].].].].].].].].].].].].].].].].].L y { O.O.O.[ j ].].].E.].].].].].].].].].].].].].].].].",
"].].].].].].].].].].].].].].].].].].].X.G H O.O.O.O.[ X ].].].].].].].].].].].].].].].].].].].].",
"].].].].].].].].].].].].].].].].].].O.` 0 | O.O.O.O.[ o ].]._.].].].].].].].].].].].].].].].].].",
"].].].].].].].].].].].].].].].].].O.[ w J O.O.O.O.O._ o f D.W.].].].].].].].].].].].].].].].].].",
"].].].].].].].].].].].].].].].].O.O.s - P O.O.O.O.| t & > x.D.].].].].].].].].].].].].].].].].].",
"].].].].].].].].].].].].].].].O.O.^ = t  .O.O.O.O.J p p Y M.].].].].].].].].].].].].].].].].].].",
"].].].].].].].].].].].].].].O.O.` 9 - J O.O.O.O. .G ! &.r.N.].].].].].].].].].].].].].].].].].].",
"].].].].].].].].].].].].].].O.` 0 o q X.O.O.O.O.O.+.~ ~ L.].].].].].].].].].].].].].].].].].].].",
"].].].].].].].].].].].].].].G = X   q X.O.O.O.O.q.8.0.A.K.].].].].].].].].].].].].].].].].].].].",
"].].].].].].].].].].].].].].o X o . - { O.O.O.O.9.W t.K.>.! ].].].].].].].].].].].].].].].].].].",
"].].].].].].].].].].].].. > b $ $ . o t } o.9.9.Q W b.m.* u ].].].].].].].].].].].].].].].].].].",
"].].].].].].].].].].].: I %.b % % o . & U 7.E ..u.w.c.S $ . ].].].].].].].].].].].].].].].].].].",
"].].].].].].].].].].].m ;.2.< % % % $ 1 v x Y 8.e.] p.#.2 . ].].].].].].].].].].].].].].].].].].",
"].].].].].].].].].].].N ;.%.< % % % $ M 2.2 O 5 s M 3 M T X ].].].].].].].].].].].].].].].].].].",
"].].].].].].].].].].].l <.$.; % % $ < c i @.x $ X I ( s.l.z ].].].].].].].].].].].].].].].].].].",
"].].].].].].].].].].].  A 4.< ; ; u i $ $ < #.n + ( =.4 6 ,.].].].].].].].].].].].].].].].].].].",
"].].].].].].].].].].].].$ n d.c.x.=.z Z Z b -.j.z.D + V # ].].].].].].].].].].].].].].].].].].].",
"].].].].].].].].].].].].].X , s < m d.l.l.f.A , 7 # @ C ].].].].].].].].].].].].].].].].].].].].",
"].].].].].].].].].].].].].0 9 9 - % 8 :.*.S k % ].].].].].].].].].].].].].].].].].].].].].].].].",
"].].].].].].].].].].].].r F r 0 9 ].].S.n.].].].].].].].].].].].].].].].].].].].].].].].].].].].",
"].].].].].].].].].].].9 9 9 e r 0 ].].S.S.].].].].].].].].].].].].].].].].].].].].].].].].].].].",
"].].].].].].].].].].e 0 0 9 9 F ].].].].].].].].].].].].].].].].].].].].].].].].].].].].].].].].",
"].].].].].].].].].].F F r 0 9 ].].].].].].].].].].].].].].].].].].].].].].].].].].].].].].].].].",
"].].].].].].].].].].k.( e r ].].].].].].].].].].].].].].].].].].].].].].].].].].].].].].].].].].",
"].].].].].].].].].].!.S.].].].].].].].].].].].].].].].].].].].].].].].].].].].].].].].].].].].].",
"].].].].].].].].].]./.].].].].].].].].].].].].].].].].].].].].].].].].].].].].].].].].].].].].].",
"].].].].].].].].].]././.].].].].].].].].].].].].].].].].].].].].].].].].].].].].].].].].].].].]."
};
