/* XPM */
static char *result[] = {
/* columns rows colors chars-per-pixel */
"48 48 168 2 ",
"   c #0F0F10",
".  c gray8",
"X  c #191715",
"o  c #1A1916",
"O  c gray11",
"+  c #211F14",
"@  c #221E1B",
"#  c #262315",
"$  c #24221B",
"%  c #1A1E20",
"&  c #1D2022",
"*  c #1F2C33",
"=  c gray14",
"-  c #2A2622",
";  c #262728",
":  c #26292A",
">  c #2A2A2B",
",  c #302E2D",
"<  c #3C342D",
"1  c #2C2F30",
"2  c #283339",
"3  c #333332",
"4  c #393633",
"5  c #363738",
"6  c #38393A",
"7  c #3A3A3A",
"8  c #423D1D",
"9  c #443426",
"0  c #4A3B2E",
"q  c #403E3B",
"w  c #5D4025",
"e  c #48433E",
"r  c #544334",
"t  c #5B4735",
"y  c #5D4937",
"u  c #55483C",
"i  c #5D4C3C",
"p  c #664D36",
"a  c #694F37",
"s  c #69503A",
"d  c #6B523A",
"f  c #745435",
"g  c #7B5736",
"h  c #7E5836",
"j  c #71563E",
"k  c #283C47",
"l  c #373E41",
"z  c #3B3F41",
"x  c #27404C",
"c  c #3C4347",
"v  c #2D4450",
"b  c #3B4E58",
"n  c #315466",
"m  c #3D6376",
"M  c #414242",
"N  c #454646",
"B  c #4D4945",
"V  c #494949",
"C  c #5A4E42",
"Z  c #444D52",
"A  c #4E585D",
"S  c #555858",
"D  c #5C5A58",
"F  c #655444",
"G  c #695440",
"H  c #6E5946",
"J  c #775C42",
"K  c #795D43",
"L  c #705F4E",
"P  c #615C58",
"I  c #7B654C",
"U  c #7B744B",
"Y  c #6A625B",
"T  c #716F56",
"R  c #727454",
"E  c #416167",
"W  c #5E6E77",
"Q  c #656565",
"!  c DimGray",
"~  c #737063",
"^  c #626E74",
"/  c #627179",
"(  c #815A36",
")  c #865F3B",
"_  c #88613E",
"`  c #8B6846",
"'  c #8D6A49",
"]  c #9C744E",
"[  c #8A6F55",
"{  c #8C735B",
"}  c #9D7652",
"|  c #92775D",
" . c #A37A53",
".. c #A47D59",
"X. c #817A62",
"o. c #7D8061",
"O. c #98831B",
"+. c #AE9720",
"@. c #B3A434",
"#. c #D2B31D",
"$. c #D3B520",
"%. c #D8BD36",
"&. c #AB815A",
"*. c #9E8164",
"=. c #8D9B66",
"-. c #8F8271",
";. c #A58466",
":. c #AF8864",
">. c #B28A65",
",. c #BB8F65",
"<. c #B49360",
"1. c #B3AA76",
"2. c #CBBA58",
"3. c #CD9764",
"4. c #CF9966",
"5. c #C59D77",
"6. c #DBC242",
"7. c #EAD77A",
"8. c #446F85",
"9. c #42748D",
"0. c #427691",
"q. c #487B95",
"w. c #467C98",
"e. c #6B7C85",
"r. c #6D7D85",
"t. c #4E829E",
"y. c #718087",
"u. c #72838C",
"i. c #62899D",
"p. c #7C8D96",
"a. c #7D909A",
"s. c #588BA5",
"d. c #5A90AC",
"f. c #6392AA",
"g. c #78A8BE",
"h. c #6FA7C3",
"j. c #7EB3CE",
"k. c #81919A",
"l. c #BBBC8C",
"z. c #B5A694",
"x. c #95A3AA",
"c. c #9AA7AE",
"v. c #9BA8AE",
"b. c #9FBDAA",
"n. c #9DA9B0",
"m. c #ABB1A4",
"M. c #AAB4B9",
"N. c #ADB8BD",
"B. c #ECDB84",
"V. c #EEDE8A",
"C. c #D9D8AD",
"Z. c #8AB7CE",
"A. c #98B5C3",
"S. c #89BDD8",
"D. c #97BDD1",
"F. c #8EC2DD",
"G. c #94C3D2",
"H. c #90C3DE",
"J. c #93C6E1",
"K. c #9CCBE4",
"L. c #A3CEE5",
"P. c #ABD1E5",
"I. c #B2D6E8",
"U. c #BCDBEB",
"Y. c #BBDCF0",
"T. c #C4CBCE",
"R. c #C3DACF",
"E. c None",
/* pixels */
"E.E.E.E.E.E.E.E.E.E.E.E.E.E.E.E.E.E.E.E.E.E.E.E.E.E.E.E.E.E.E.E.E.E.E.E.E.E.E.E.E.E.E.E.E.E.E.E.",
"E.E.E.E.E.E.E.E.E.E.E.E.E.E.E.E.E.E.E.E.E.E.E.E.E.E.E.E.E.E.E.E.E.E.E.E.E.E.E.E.E.E.E.E.E.E.E.E.",
"E.E.E.E.E.E.E.E.E.E.E.E.E.E.E.E.E.E.E.E.E.E.E.E.E.E.E.E.E.E.E.E.E.E.E.E.E.E.E.E.E.E.E.E.E.E.E.E.",
"E.E.E.E.E.E.E.E.E.E.E.E.E.E.E.E.E.E.E.E.E.Q Q Q Q M E.E.E.E.E.E.E.E.E.E.E.E.E.E.E.E.E.E.E.E.E.E.",
"E.E.E.E.E.E.E.E.E.E.E.E.E.E.E.E.E.E.E.E.,.;.;.;.*.P M 5 E.E.E.E.E.E.E.E.E.E.E.E.E.E.E.E.E.E.E.E.",
"E.E.E.E.E.E.E.E.E.E.E.E.E.E.E.E.E.E.E...K s a a d | B 5 > E.E.E.E.E.E.E.E.E.E.E.E.E.E.E.E.E.E.E.",
"E.E.E.E.E.E.E.E.E.E.E.E.E.E.E.E.E.E.E.L % % x k O p I e > = E.E.E.E.E.E.E.E.E.E.E.E.E.E.E.E.E.E.",
"E.E.E.E.E.E.E.E.E.E.E.E.E.E.E.E.E.E.E.N . * 0.9.k O ` F 5 > O E.E.E.E.E.E.E.E.E.E.E.E.E.E.E.E.E.",
"E.E.E.E.E.E.E.E.E.E.E.E.E.E.E.E.E.E.E.V . 2 f.d.9.: ( i 5 > O E.E.E.E.E.E.E.E.E.E.E.E.E.E.E.E.E.",
"E.E.E.E.E.E.E.E.E.E.E.#.E.E.E.E.E.E.Y 7 . c P.S.q.: ] F 5 > O O E.E.E.E.E.E.E.E.E.E.E.E.E.E.E.E.",
"E.E.E.E.E.E.E.E.E.E.E.%.E.E.E.E.E.4.J X . 6 A.H.s.k ` H q > O O E.E.E.E.E.E.E.E.E.E.E.E.E.E.E.E.",
"E.E.E.E.E.E.E.E.E.$.%.7.V.E.E.E.E.4.j . . X l A.g.8.1 ' H = O O E.E.E.E.E.E.E.E.E.E.E.E.E.E.E.E.",
"E.E.E.E.E.E.E.E.E.%.7.V.V.E.E.E.E.E.K o O . X : : : $ ' y O O O O E.E.E.E.E.E.E.E.E.E.E.E.E.E.E.",
"E.E.E.E.E.E.E.E.E.E.6.B.E.E.E.E.E.E.&.[ N o o X @ `  .t = O O O O E.E.E.E.E.E.E.E.E.E.E.E.E.E.E.",
"E.E.E.E.E.E.E.E.E.E.E.E.E.E.E.E.E.E.E.H &.} } ] f 0 0 - O > > O O E.E.E.E.E.E.E.E.E.E.E.E.E.E.E.",
"E.E.E.E.E.E.E.E.E.U.Y.E.E.E.E.E.E.E.E.B r r r r 9 @ > > = = = O O O E.E.E.E.E.E.E.E.E.E.E.E.E.E.",
"E.E.E.E.E.E.E.E.U.U.E.E.E.E.E.E.E.E.E.V X . O B K 4 ; = = O O O O O E.E.E.E.E.E.E.E.E.E.E.E.E.E.",
"E.E.E.E.E.E.E.E.U.U.U.U.U.E.E.E.E.E.W b . . O e { j < % O O O O O O E.E.E.E.E.E.E.E.E.E.E.E.E.E.",
"E.E.E.E.E.E.E.E.I.P.U.U.P.E.E.E.E.a.i.n . . . O P ] u = O O O O O O E.E.E.E.E.E.E.E.E.E.E.E.E.E.",
"E.E.E.E.E.E.E.E.E.K.P.P.J.E.E.E.E.K.h.n . . . O Y >.C = O O O O O O O E.E.E.E.E.E.E.E.E.E.E.E.E.",
"E.E.E.E.E.E.E.E.E.E.H.H.H.F.j.Z.D.Z.s.x X X . O B [ s - O O O O O O O E.E.E.E.E.E.E.E.E.E.E.E.E.",
"E.E.E.E.E.E.E.E.E.E.E.E.E.F.d.w.w.9.v X X X . . X 4 _ 9 O O O O O O O E.E.E.E.E.E.E.E.E.E.E.E.E.",
"E.E.E.E.E.E.E.E.E.E.E.E.E.E.E.E.E.N > . X X X . X 4 ..r O O O O O O O E.E.E.E.E.E.E.E.E.E.E.E.E.",
"E.E.E.E.E.E.E.E.E.E.E.E.E.E.E.E.E.Q 7 . X X X . X 4 ..r O O O O O O O E.E.E.E.E.E.E.E.E.E.E.E.E.",
"E.E.E.E.E.E.E.E.E.E.E.E.E.E.E.E.E.! M . . . . . X 7 ..r O O O O O O O E.E.E.E.E.E.E.E.E.E.E.E.E.",
"E.E.E.E.E.E.E.E.E.E.E.E.E.E.E.E.E.! M . . . . . O S :.F = O O O O O O E.E.E.E.E.E.E.E.E.E.E.E.E.",
"E.E.E.E.E.E.E.E.E.E.E.E.E.E.E.E.E.! M . . . X . O D >.F = O O O O O O E.E.E.E.E.E.E.E.E.E.E.E.E.",
"E.E.E.E.E.E.E.E.E.E.E.E.E.E.E.E.E.! M . . . X . O D >.F = O O O O O O E.E.E.E.E.E.E.E.E.E.E.E.E.",
"E.E.E.E.E.E.E.E.E.E.E.E.E.E.E.E.E.V 3 . . X . $ *.~ :.F = O O O O O O E.E.E.E.E.E.E.E.E.E.E.E.E.",
"E.E.E.E.E.E.E.E.E.E.E.E.E.E.E.E.E.5 = .   : e.o.2.X.:.F = O O O O O O E.E.E.E.E.E.E.E.E.E.E.E.E.",
"E.E.E.E.E.E.E.E.E.E.E.E.E.E.E.E.E.I I U T u.L.G.=.~ } i = O O O O O O E.E.E.E.E.E.E.E.E.E.E.E.E.",
"E.E.E.E.E.E.E.E.E.E.E.E.E.E.E.E.E.3.<.1.C.R.J.S.t.A ) r = O O O O O O E.E.E.E.E.E.E.E.E.E.E.E.E.",
"E.E.E.E.E.E.E.E.E.E.E.E.E.E.E.E.E.3.[ ^ m.l.b.g.m z h r = O O O O O O O E.E.E.E.E.E.E.E.E.E.E.E.",
"E.E.E.E.E.E.E.E.E.E.E.E.E.E.E.E.E.5.z.x.u.o.@.E & 4 ( r = O O O O O O O E.E.E.E.E.E.E.E.E.E.E.E.",
"E.E.E.E.E.E.E.E.E.E.E.E.E.E.E.E.E.N.x.p.e.R +.$ X , f y > O O O O O O O E.E.E.E.E.E.E.E.E.E.E.E.",
"E.E.E.E.E.E.E.E.E.E.E.E.E.E.E.E.T.n.p.r.Z 8 O.+ . O 3 g t ; o O O O O O E.E.E.E.E.E.E.E.E.E.E.E.",
"E.E.E.E.E.E.E.E.E.E.E.E.E.E.E.T.v.a.r.Z O o # X X X 1 g y ; O O O O O O E.E.E.E.E.E.E.E.E.E.E.E.",
"E.E.E.E.E.E.E.E.E.E.E.E.E.E.T.v.k.y.Z O . . . . X X 3 g y ; O O O O O O E.E.E.E.E.E.E.E.E.E.E.E.",
"E.E.E.E.E.E.E.E.E.E.E.E.E.T.c.k.e.-.G . X . . . X X , g y : O O O O O O E.E.E.E.E.E.E.E.E.E.E.E.",
"E.E.E.E.E.E.E.E.E.E.E.E.T.v.k.r.A { j . . . . . X X , g y : O O O O O O O E.E.E.E.E.E.E.E.E.E.E.",
"E.E.E.E.E.E.E.E.E.E.E.T.n.k.r./ z J p . X X . . X X , g y : O O O O O O O E.E.E.E.E.E.E.E.E.E.E.",
"E.E.E.E.E.E.E.E.E.E.N.n.a.r./ E.5 a w . X X . . X X , g y : O O O O O O O E.E.E.E.E.E.E.E.E.E.E.",
"E.E.E.E.E.E.E.E.E.M.x.p.r./ E.E.t a 9 . X X X . X X 3 h y ; O O O O O O O O E.E.E.E.E.E.E.E.E.E.",
"E.E.E.E.E.E.E.E.M.x.p.y./ E.E.7 f p ; . X X . . X X = t p < = O O O O O O O O E.E.E.E.E.E.E.E.E.",
"E.E.E.E.E.E.E.E.x.p.y.W E.E.E.7 f p ; X X X X X X . X > f p > O O O O O O O O O E.E.E.E.E.E.E.E.",
"E.E.E.E.E.E.E.E.a.u.W E.E.E.7 7 f p ; X X X X X X . . > f p > O O O O O O O O O E.E.E.E.E.E.E.E.",
"E.E.E.E.E.E.E.E.E.E.E.E.E.E.E.E.E.E.E.E.E.E.E.E.E.E.E.E.E.E.E.E.E.E.E.E.E.E.E.E.E.E.E.E.E.E.E.E.",
"E.E.E.E.E.E.E.E.E.E.E.E.E.E.E.E.E.E.E.E.E.E.E.E.E.E.E.E.E.E.E.E.E.E.E.E.E.E.E.E.E.E.E.E.E.E.E.E."
};
