/* XPM */
static char *result[] = {
/* columns rows colors chars-per-pixel */
"48 48 163 2 ",
"   c #0F0F10",
".  c gray8",
"X  c #191715",
"o  c #1A1916",
"O  c #171718",
"+  c gray11",
"@  c #201C15",
"#  c #211E1B",
"$  c #262315",
"%  c #23211C",
"&  c #1A1E20",
"*  c #1D2022",
"=  c #1F2C33",
"-  c #242525",
";  c #2C2825",
":  c #252728",
">  c #26292A",
",  c #2A2B2B",
"<  c #392D22",
"1  c #302E2C",
"2  c #37312D",
"3  c #3C352E",
"4  c #2C3134",
"5  c #343232",
"6  c #3B3632",
"7  c #3B3835",
"8  c #373738",
"9  c #36393A",
"0  c #393939",
"q  c #423D1D",
"w  c #433324",
"e  c #4A3726",
"r  c #523923",
"t  c #523B26",
"y  c #4F3F30",
"u  c #433D38",
"i  c #5D4026",
"p  c #5C432C",
"a  c #4D4339",
"s  c #554536",
"d  c #5B4735",
"f  c #5D4937",
"g  c #574738",
"h  c #5A493A",
"j  c #6B4A2B",
"k  c #744F2C",
"l  c #77502C",
"z  c #7A522E",
"x  c #654C35",
"c  c #6A4F36",
"v  c #6D5037",
"b  c #745436",
"n  c #7B5736",
"m  c #7E5936",
"M  c #72563B",
"N  c #273C47",
"B  c #373E41",
"V  c #3B3F41",
"C  c #27404E",
"Z  c #3E4245",
"A  c #2A4451",
"S  c #394E58",
"D  c #315466",
"F  c #3D6376",
"G  c #434343",
"H  c #484848",
"J  c #575341",
"K  c #434D52",
"L  c #4B555A",
"P  c #5A5856",
"I  c #555858",
"U  c #625844",
"Y  c #775C43",
"T  c #745D47",
"R  c #7C744B",
"E  c #6F6359",
"W  c #756E5A",
"Q  c #727454",
"!  c #416167",
"~  c #5D6D76",
"^  c #656565",
"/  c #67696B",
"(  c #716F62",
")  c #7F7860",
"_  c #636E75",
"`  c #627179",
"'  c #6B7F7D",
"]  c #835B36",
"[  c #855E3B",
"{  c #8B6037",
"}  c #8A6341",
"|  c #856548",
" . c #946D49",
".. c #9D7958",
"X. c #A27B56",
"o. c #A27C58",
"O. c #7D8061",
"+. c #98831B",
"@. c #AE9720",
"#. c #B3A434",
"$. c #D2B41E",
"%. c #D3B623",
"&. c #D6BA2F",
"*. c #D7BC32",
"=. c #8D9B66",
"-. c #AD8662",
";. c #BC9066",
":. c #B4AB76",
">. c #CBBA58",
",. c #CF9966",
"<. c #E7D470",
"1. c #446F85",
"2. c #40748E",
"3. c #507588",
"4. c #427691",
"5. c #497C96",
"6. c #477E9A",
"7. c #6B7C85",
"8. c #6D7D86",
"9. c #707F86",
"0. c #4D829D",
"q. c #72838C",
"w. c #728792",
"e. c #7D8D96",
"r. c #7E8F98",
"t. c #7F9099",
"y. c #578AA5",
"u. c #5B91AC",
"i. c #6392AA",
"p. c #719FB6",
"a. c #78A8BE",
"s. c #6FA6C2",
"d. c #7EB3CE",
"f. c #9F9180",
"g. c #81919A",
"h. c #BBBC8C",
"j. c #919FA7",
"k. c #93A1A7",
"l. c #95A3AA",
"z. c #9BA7AE",
"x. c #9FBDAA",
"c. c #ABB1A4",
"v. c #A9B2B5",
"b. c #ABB5BB",
"n. c #ECDB83",
"m. c #D9D8AD",
"M. c #98B5C3",
"N. c #83B7D2",
"B. c #8BBCD5",
"V. c #89BDD9",
"C. c #8EC2DC",
"Z. c #97C3D5",
"A. c #91C3DD",
"S. c #A4C7DA",
"D. c #97C9E3",
"F. c #A3CEE5",
"G. c #ABD1E5",
"H. c #ADD4E8",
"J. c #B2D6E8",
"K. c #BCDBEB",
"L. c #C4CBCF",
"P. c #C3DACF",
"I. c None",
/* pixels */
"I.I.I.I.I.I.I.I.I.I.I.I.I.I.I.I.I.I.I.I.I.I.I.I.I.I.I.I.I.I.I.I.I.I.I.I.I.I.I.I.I.I.I.I.I.I.I.I.",
"I.I.I.I.I.I.I.I.I.I.I.I.I.I.I.I.I.I.I.I.I.I.I.I.I.I.I.I.I.I.I.I.I.I.I.I.I.I.I.I.I.I.I.I.I.I.I.I.",
"I.I.I.I.I.I.I.I.I.I.I.I.I.I.I.I.I.I.I.I.I.I.I.I.I.I.I.I.I.I.I.I.I.I.I.I.I.I.I.I.I.I.I.I.I.I.I.I.",
"I.I.I.I.I.I.I.I.I.I.I.I.I.I.I.I.I.I.I.I.I.^ ^ ^ 0 8 I.I.I.I.I.I.I.I.I.I.I.I.I.I.I.I.I.I.I.I.I.I.",
"I.I.I.I.I.I.I.I.I.I.I.I.I.I.I.I.I.I.I.I.;...| | M u 8 8 I.I.I.I.I.I.I.I.I.I.I.I.I.I.I.I.I.I.I.I.",
"I.I.I.I.I.I.I.I.I.I.I.I.I.I.I.I.I.I.I.o.T x r r t x u 8 , I.I.I.I.I.I.I.I.I.I.I.I.I.I.I.I.I.I.I.",
"I.I.I.I.I.I.I.I.I.I.I.I.I.I.I.I.I.I.I.T & & C N + r x u , - I.I.I.I.I.I.I.I.I.I.I.I.I.I.I.I.I.I.",
"I.I.I.I.I.I.I.I.I.I.I.I.I.I.I.I.I.I.I.H . = 4.2.N + l g 8 , + I.I.I.I.I.I.I.I.I.I.I.I.I.I.I.I.I.",
"I.I.I.I.I.I.I.I.I.I.I.I.I.I.I.I.I.I.I.H . 4 i.u.4.> l g 8 , + I.I.I.I.I.I.I.I.I.I.I.I.I.I.I.I.I.",
"I.I.I.I.I.I.I.I.I.I.$.I.I.I.I.I.I.I.E 8 . Z G.V.5.: l g 8 , + + I.I.I.I.I.I.I.I.I.I.I.I.I.I.I.I.",
"I.I.I.I.I.I.I.I.I.I.I.$.I.I.I.I.I.,.Y . . 9 M.A.y.N j d 0 , + + I.I.I.I.I.I.I.I.I.I.I.I.I.I.I.I.",
"I.I.I.I.I.I.I.I.I.I.I.$.I.I.I.I.I.,.Y . . . B M.a.1.> j d - + + I.I.I.I.I.I.I.I.I.I.I.I.I.I.I.I.",
"I.I.I.I.I.I.I.I.I.I.%.%.I.I.I.I.I.I.Y X . . O > > - # j e + + + + I.I.I.I.I.I.I.I.I.I.I.I.I.I.I.",
"I.I.I.I.I.I.I.I.I.I.&.<.I.I.I.I.I.I.{ x , o X . o j z e % + + + + I.I.I.I.I.I.I.I.I.I.I.I.I.I.I.",
"I.I.I.I.I.I.I.I.I.I.*.n.I.I.I.I.I.I.I.x X. .z l k w < % + , , + + I.I.I.I.I.I.I.I.I.I.I.I.I.I.I.",
"I.I.I.I.I.I.I.I.I.I.I.I.I.I.I.I.I.I.I.6 s y w w w % , 1 - - - + + + I.I.I.I.I.I.I.I.I.I.I.I.I.I.",
"I.I.I.I.I.I.I.I.I.I.I.I.I.I.I.I.I.I.I., . . + 1 p 2 > - - + + + + + I.I.I.I.I.I.I.I.I.I.I.I.I.I.",
"I.I.I.I.I.I.I.I.I.I.I.I.I.I.I.I.I.I.H 8 . . . ; f c 3 * + + + + + + I.I.I.I.I.I.I.I.I.I.I.I.I.I.",
"I.I.I.I.I.I.I.K.K.I.I.I.I.I.I.I.I.5 L S . . . O 6 ] s - + + + + + + I.I.I.I.I.I.I.I.I.I.I.I.I.I.",
"I.I.I.I.I.I.I.K.J.G.I.I.I.K.I.I.I.~ 3.D . . . + 7 ] a - + + + + + + + I.I.I.I.I.I.I.I.I.I.I.I.I.",
"I.I.I.I.I.I.I.I.G.A.D.H.J.K.I.I.I.D.s.D . . . . 1 c f ; + + + + + + + I.I.I.I.I.I.I.I.I.I.I.I.I.",
"I.I.I.I.I.I.I.I.I.V.d.N.C.I.I.I.S.B.u.A . . . . . 5 m w + + + + + + + I.I.I.I.I.I.I.I.I.I.I.I.I.",
"I.I.I.I.I.I.I.I.I.I.6.y.V.A.N.Z.p.5.S . . . . . . 5 m w + + + + + + + I.I.I.I.I.I.I.I.I.I.I.I.I.",
"I.I.I.I.I.I.I.I.I.I.I.I.I.C.u.0.I./ G . . . . . . 5 [ w + + + + + + + I.I.I.I.I.I.I.I.I.I.I.I.I.",
"I.I.I.I.I.I.I.I.I.I.I.I.I.I.I.I.I./ G . . . . . . 7 X.s + + + + + + + I.I.I.I.I.I.I.I.I.I.I.I.I.",
"I.I.I.I.I.I.I.I.I.I.I.I.I.I.I.I.I.^ G . . . . . + I -.U - + + + + + + I.I.I.I.I.I.I.I.I.I.I.I.I.",
"I.I.I.I.I.I.I.I.I.I.I.I.I.I.I.I.I.H , . . . . . + P  .h - + + + + + + I.I.I.I.I.I.I.I.I.I.I.I.I.",
"I.I.I.I.I.I.I.I.I.I.I.I.I.I.I.I.I.8 - . . . . . + P } s - + + + + + + I.I.I.I.I.I.I.I.I.I.I.I.I.",
"I.I.I.I.I.I.I.I.I.I.I.I.I.I.I.I.I.8 : . . . . % =.( } s - + + + + + + I.I.I.I.I.I.I.I.I.I.I.I.I.",
"I.I.I.I.I.I.I.I.I.I.I.I.I.I.I.I.I.8 - .   > 7.' >.) } s - + + + + + + I.I.I.I.I.I.I.I.I.I.I.I.I.",
"I.I.I.I.I.I.I.I.I.I.I.I.I.I.I.I.I.8 J R Q w.F.Z.=.( } s - + + + + + + I.I.I.I.I.I.I.I.I.I.I.I.I.",
"I.I.I.I.I.I.I.I.I.I.I.I.I.I.I.I.I.8 U :.m.P.D.V.0.I [ s - + + + + + + I.I.I.I.I.I.I.I.I.I.I.I.I.",
"I.I.I.I.I.I.I.I.I.I.I.I.I.I.I.I.I.s a _ c.h.x.a.F V m s - + + + + + + + I.I.I.I.I.I.I.I.I.I.I.I.",
"I.I.I.I.I.I.I.I.I.I.I.I.I.I.I.I.I...f.l.q.O.#.! * 5 ] s - + + + + + + + I.I.I.I.I.I.I.I.I.I.I.I.",
"I.I.I.I.I.I.I.I.I.I.I.I.I.I.I.I.I.v.k.e.7.Q @.$ . 1 b f , + + + + + + + I.I.I.I.I.I.I.I.I.I.I.I.",
"I.I.I.I.I.I.I.I.I.I.I.I.I.I.I.I.b.l.r.8.K q +.@ . + 5 n d : + + + + + + I.I.I.I.I.I.I.I.I.I.I.I.",
"I.I.I.I.I.I.I.I.I.I.I.I.I.I.I.L.z.r.8.K + o $ . . . 5 n f > + + + + + + I.I.I.I.I.I.I.I.I.I.I.I.",
"I.I.I.I.I.I.I.I.I.I.I.I.I.I.L.z.g.9.K + . . . . . . 5 n f > + + + + + + I.I.I.I.I.I.I.I.I.I.I.I.",
"I.I.I.I.I.I.I.I.I.I.I.I.I.b.l.g.8.W y . . . . . . . 5 n f > + + + + + + I.I.I.I.I.I.I.I.I.I.I.I.",
"I.I.I.I.I.I.I.I.I.I.I.I.b.j.t.8.L M i . . . . . . . 5 n f > + + + + + + + I.I.I.I.I.I.I.I.I.I.I.",
"I.I.I.I.I.I.I.I.I.I.I.b.k.t.8.` V v i . . . . . . . 5 n f > + + + + + + + I.I.I.I.I.I.I.I.I.I.I.",
"I.I.I.I.I.I.I.I.I.I.b.k.r.8.` I.8 v i . . . . . . . 5 n f > + + + + + + + I.I.I.I.I.I.I.I.I.I.I.",
"I.I.I.I.I.I.I.I.I.v.l.e.9.` I.I.d c w . . . . . . . 5 m f : + + + + + + + + I.I.I.I.I.I.I.I.I.I.",
"I.I.I.I.I.I.I.I.v.l.e.q.` I.I.8 b x : . . . . . . . - d x 3 - + + + + + + + + I.I.I.I.I.I.I.I.I.",
"I.I.I.I.I.I.I.I.l.e.q._ I.I.I.8 b x : . . . . . . . . , b x , + + + + + + + + + I.I.I.I.I.I.I.I.",
"I.I.I.I.I.I.I.I.r.q.~ I.I.I.8 8 b x : . . . . . . . . , b x , + + + + + + + + + I.I.I.I.I.I.I.I.",
"I.I.I.I.I.I.I.I.I.I.I.I.I.I.I.I.I.I.I.I.I.I.I.I.I.I.I.I.I.I.I.I.I.I.I.I.I.I.I.I.I.I.I.I.I.I.I.I.",
"I.I.I.I.I.I.I.I.I.I.I.I.I.I.I.I.I.I.I.I.I.I.I.I.I.I.I.I.I.I.I.I.I.I.I.I.I.I.I.I.I.I.I.I.I.I.I.I."
};
