/* XPM */
static char *_ccef3f588a64e4bdb02445969c7a31dvNJwENJU48nZZt8i[] = {
/* columns rows colors chars-per-pixel */
"48 48 130 2 ",
"   c None",
".  c black",
"X  c #090900",
"o  c #6B6B00",
"O  c #7E7E00",
"+  c #005E5E",
"@  c #006161",
"#  c #006B6B",
"$  c #086B6B",
"%  c #017171",
"&  c #0E7272",
"*  c #007A7A",
"=  c #999900",
"-  c #C5C500",
";  c yellow",
":  c #008383",
">  c #1C8585",
",  c #009393",
"<  c #009B9B",
"1  c #0A9E9E",
"2  c #2F8181",
"3  c #348686",
"4  c #279393",
"5  c #00A3A3",
"6  c #00ABAB",
"7  c #0BACAC",
"8  c #10A1A1",
"9  c #12ABAB",
"0  c #00B5B5",
"q  c #08B4B4",
"w  c #01BCBC",
"e  c #13B8B8",
"r  c #32A1A1",
"t  c #3EA7A7",
"y  c #37B3B3",
"u  c #3FBCBC",
"i  c #5DA5A5",
"p  c #41B5B5",
"a  c #40BDBD",
"s  c #48BEBE",
"d  c #6FBEBE",
"f  c #73BEBE",
"g  c #03C1C1",
"h  c #0CC4C4",
"j  c #00CCCC",
"k  c #10C7C7",
"l  c #1ACCCC",
"z  c #00D0D0",
"x  c #01DBDB",
"c  c #0CDFDF",
"v  c #1BD3D3",
"b  c #16DFDF",
"n  c #19DFDF",
"m  c #20C8C8",
"M  c #2FCECE",
"N  c #37CFCF",
"B  c #25D4D4",
"V  c #2BD1D1",
"C  c #2DD9D9",
"Z  c #3BD5D5",
"A  c #3BDDDD",
"S  c #03E2E2",
"D  c #00EEEE",
"F  c #1BE1E1",
"G  c #02F5F5",
"H  c #1CF7F7",
"J  c #1CF8F8",
"K  c #33E4E4",
"L  c #3DE4E4",
"P  c #31EAEA",
"I  c #2AF4F4",
"U  c #45C3C3",
"Y  c #40CECE",
"T  c #44D7D7",
"R  c #4AD8D8",
"E  c #59D5D5",
"W  c #54DDDD",
"Q  c #5BD9D9",
"!  c #69DBDB",
"~  c #45E4E4",
"^  c #48E4E4",
"/  c #47EEEE",
"(  c #4BEFEF",
")  c #55E7E7",
"_  c #54EEEE",
"`  c #40F7F7",
"'  c #48F0F0",
"]  c #42F9F9",
"[  c #50F3F3",
"{  c #5CF4F4",
"}  c #56FDFD",
"|  c #6AE2E2",
" . c #6CECEC",
".. c #73E4E4",
"X. c #71EBEB",
"o. c #67F5F5",
"O. c #6EF1F1",
"+. c #6EFCFC",
"@. c #70F2F2",
"#. c #72FFFF",
"$. c #7BFEFE",
"%. c #81BCBC",
"&. c #98BEBE",
"*. c #82C0C0",
"=. c #83E3E3",
"-. c #8AE9E9",
";. c #94EFEF",
":. c #8DF3F3",
">. c #96F0F0",
",. c #9DF2F2",
"<. c #9EF8F8",
"1. c #A7EFEF",
"2. c #BAEEEE",
"3. c #A3F6F6",
"4. c #A9F4F4",
"5. c #A4FBFB",
"6. c #AEFDFD",
"7. c #BDF6F6",
"8. c #B6FDFD",
"9. c #BCFFFF",
"0. c #C3F4F4",
"q. c #C3FDFD",
"w. c #CBFDFD",
"e. c #D2FFFF",
"r. c #DCFDFD",
"t. c #E3FEFE",
"y. c #F3FEFE",
"u. c #F7FFFF",
"i. c #F8FEFE",
"p. c white",
/* pixels */
"              . . .                                                                             ",
"              . . .                                                                             ",
"                                                                                                ",
"                                                                                                ",
"                                                                                                ",
"              . . .                                                                             ",
"              X X X                                                                             ",
". .       . X = - O . .       . .                                                               ",
". .       . X - ; = . .     . . .                                                               ",
". .       . X O = o . .       .                                                                 ",
"              . . .                                                                             ",
"              . . .                                                                             ",
"                                  @ @ @ @ @ @ @ @ @ @ @ @ @ @ @ @ @                             ",
"                                  + + + + + + + + + + + + + + + + +                             ",
"                .             + 2 %.%.f d p 6 9 %.&.t , 8 a a e 0 < + @                         ",
"              . . .         + + 3 r.t.w.q.@.x F t.p.! w v #.#.J G 0 + +                         ",
"              . .           2 3 i w.e.<.:. .L ) t.i.=.M Z _ [ I H k : :                         ",
"                        @ + %.r.w.9.8.K x  .i.y.t.r.e.w.;.h g [ #.` D x % +                     ",
"                        @ @ *.t.e.8.6.K x  .p.p.t.r.e.e.,.h h _ #.] G S % @                     ",
"                    + # 0 w ..w.<.K K ,.0.r.p.p.u.u.u.u.t.0.2.T l K } ( 1 , * + @               ",
"                    + # j x O.q.:.x x 0.p.p.p.p.p.p.p.p.p.p.p.Y w C #.o.7 5 * + @               ",
"                    + % C P _ @._ x x X.>.>.>.>.>.>.>.>.>.>.;.B j v ~ A 7 5 * + @               ",
"                    + &  .$.P x x x x x x x x x x x x x x x x x x z w w 5 5 * + @               ",
"                    + & !  .K c c x x b n n b b b b b b b b b x x j w w < < * + @               ",
"                        & & U +.[ x x >.q.8.5.5.5.5.5.5.5.5.<.V g 0 5 < # @                     ",
"                        + + s $.{ x x 4.t.e.9.9.9.9.9.9.9.9.8.M w 0 5 < # +                     ",
"                            4 r y / ' W Q -.e.w.9.9.9.9.<.W R e 6 < * *                         ",
"                            + + > $.$.l w Q t.r.9.9.9.q.:.g w 6 5 : + +                         ",
"                              + > E Q V l W 1.4.9.q.3.:.| w 0 < , : @ @                         ",
"                                  @ $ Q $.^ g m 0.r.Q g w 5 5 % @ @                             ",
"                                  + @ E $.~ g l 7.r.Q w 0 5 < % + @                             ",
"                                      > > y { _ Z N e 6 < % %                 . .               ",
"                                      + + r $.+.h w 6 5 , @ +               . . .               ",
"                                        + 4 s u q 0 < : : @ @                 .                 ",
"                                            + @ < 5 * + @                                       ",
"                                            + # , < * + @                                       ",
"                                                # #                         . . .               ",
"                                                @ @                         . . .               ",
"                                                                .       . . o = O X .       . . ",
"                                                              . . .     . . = ; - X .       . . ",
"                                                              . .       . . O - = X .       . . ",
"                                                                            X X X               ",
"                                                                            . . .               ",
"                                                                                                ",
"                                                                                                ",
"                                                                                                ",
"                                                                            . . .               ",
"                                                                            . . .               "
};
