/* XPM */
static char *result[] = {
/* columns rows colors chars-per-pixel */
"48 48 4 1 ",
"  c #52505E",
". c #696975",
"X c #828389",
"o c #9B9593",
/* pixels */
"   ...XXXXXXXXXXXXXXXXXXXXXXXXXXX.........      ",
"   ...XXXXXXXXXXXXXXXXXXXXXXXXXXX.........      ",
"   ...XXXXXXXXXXXXXXXXXXXXXXXXXXX.........      ",
"XXXXXXooooooooooooooooooooooooXXX............   ",
"XXXXXXooooooooooooooooooooooooXXX............   ",
"XXXXXXooooooooooooooooooooooooXXX............   ",
"oooooooooooooooXXXXXXXXXooooooXXX............   ",
"oooooooooooooooXXXXXXXXXooooooXXX............   ",
"oooooooooooooooXXXXXXXXXooooooXXX............   ",
"oooooooooXXXXXXXXXXXXoooooooooXXX............   ",
"oooooooooXXXXXXXXXXXXoooooooooXXX............   ",
"oooooooooXXXXXXXXXXXXoooooooooXXX............   ",
"ooooooXXXXXXXXXXXXXXXooooooXXXXXX............   ",
"ooooooXXXXXXXXXXXXXXXooooooXXXXXX............   ",
"ooooooXXXXXXXXXXXXXXXooooooXXXXXX............   ",
"oooXXXXXXXXXXXXXXXXXXoooXXXXXXXXX............   ",
"oooXXXXXXXXXXXXXXXXXXoooXXXXXXXXX............   ",
"oooXXXXXXXXXXXXXXXXXXoooXXXXXXXXX............   ",
"oooXXXXXXXXXXXXXXXXXXXXXXXXXXXXXX............   ",
"oooXXXXXXXXXXXXXXXXXXXXXXXXXXXXXX............   ",
"oooXXXXXXXXXXXXXXXXXXXXXXXXXXXXXX............   ",
"XXXXXXXXXXXX...XXXXXXXXXXXXXXXXXX............   ",
"XXXXXXXXXXXX...XXXXXXXXXXXXXXXXXX............   ",
"XXXXXXXXXXXX...XXXXXXXXXXXXXXXXXX............   ",
"      ......oooXXXXXXXXXXXXXXXXXX............   ",
"      ......oooXXXXXXXXXXXXXXXXXX............   ",
"      ......oooXXXXXXXXXXXXXXXXXX............   ",
"   ......oooXXXXXXXXXXXXXXXXXXXXX............   ",
"   ......oooXXXXXXXXXXXXXXXXXXXXX............   ",
"   ......oooXXXXXXXXXXXXXXXXXXXXX............   ",
"...ooooooXXXXXXXXXXXXXXXXXXXXXXXX............   ",
"...ooooooXXXXXXXXXXXXXXXXXXXXXXXX............   ",
"...ooooooXXXXXXXXXXXXXXXXXXXXXXXX............   ",
"oooXXXXXXXXXXXXXXXXXXXXXXXXXXX...............   ",
"oooXXXXXXXXXXXXXXXXXXXXXXXXXXX...............   ",
"oooXXXXXXXXXXXXXXXXXXXXXXXXXXX...............   ",
"...XXXXXXXXXXXXXXXXXXXXXXXXXXX...............   ",
"...XXXXXXXXXXXXXXXXXXXXXXXXXXX...............   ",
"...XXXXXXXXXXXXXXXXXXXXXXXXXXX...............   ",
"   ............XXXXXXXXXXXX...............      ",
"   ............XXXXXXXXXXXX...............      ",
"   ............XXXXXXXXXXXX...............      ",
"         ..............................         ",
"         ..............................         ",
"         ..............................         ",
"                                                ",
"                                                ",
"                                                "
};
