/* XPM */
static char *f8a72bc0e0ca46f0b43c919c950f197buNAbAxuVlexCG0rI[] = {
/* columns rows colors chars-per-pixel */
"48 48 64 1 ",
"  c None",
". c #260101",
"X c #350101",
"o c #4B0707",
"O c #650000",
"+ c #730707",
"@ c #5E0823",
"# c #990000",
"$ c #A20909",
"% c #993300",
"& c #CC3333",
"* c #9E6031",
"= c #A37138",
"- c #D74C1C",
"; c #ED6E2E",
": c #FF9933",
"> c #C78658",
", c #EE8F59",
"< c #C28661",
"1 c #E5A965",
"2 c #2E53CC",
"3 c #69A1DB",
"4 c #7592EF",
"5 c #B6B488",
"6 c #EDB58E",
"7 c #E6BF93",
"8 c #F5C69F",
"9 c #F7DCBF",
"0 c #FFFFCC",
"q c #FCFAD2",
"w c #340000",
"e c #65092E",
"r c #CB3232",
"t c #330000",
"y c #460505",
"u c #660000",
"i c #B6411D",
"p c black",
"a c black",
"s c black",
"d c black",
"f c black",
"g c black",
"h c black",
"j c black",
"k c black",
"l c black",
"z c black",
"x c black",
"c c black",
"v c black",
"b c black",
"n c black",
"m c black",
"M c black",
"N c black",
"B c black",
"V c black",
"C c black",
"Z c black",
"A c black",
"S c black",
"D c black",
"F c black",
/* pixels */
"                                                ",
"                 66           6                 ",
"                  666       >16                 ",
"                  9961>,r++*<>7                 ",
"                  998>>,r++#*>=                 ",
"                   97>,-r+u+%>1                 ",
"             2     7<>,i$ooo+-                  ",
"           3322     =1-#@***+i                  ",
"           33q22    ,-iu<7771*i                 ",
"           4322     &&$i6*57<,@                 ",
"            32      ##-*77787=o                 ",
"            q99      i&%*666<i                  ",
"           5555        $$i&ri                   ",
"            322        6i$##i                   ",
"           33 2       &1=O@@+%                  ",
"            332      &&#<*#i<=                  ",
"             5      &&&+o<**<eO                 ",
"             2     &&&&+yo<=<yu                 ",
"            322   &&&&&+yoy=yo+&                ",
"             5   &&&&&i@Xooyoo+&                ",
"             5  r&&&&r$u+++++++$r               ",
"             0 &&&&&&rOi-,::::r+r;              ",
"             9--&&&&&#@u+%,=>>+oi;,             ",
"             9,-&&&r#Oo.Xo>+i*yyO%&-            ",
"            &9&-&&r#OO.Xoo>+i*oX++i-            ",
"            &9$-&$+uOywyoo>+i*oyo%>%            ",
"            &9>i-%%%@Xoooo>+i*ooX+++            ",
"            &9-$i*+yXooooo>+i*oooy+>            ",
"            <9%+++owo@oooo>+i*ooooe1            ",
"            <68 ++Xo+>%oyX>+i*too==%            ",
"            <>1yi+y+$+i%yX>+i*toi*@-o           ",
"             5 t**ui@oO>+.>ui*o%%o<=            ",
"             0  .*-yyooy$*>=<=i%*<=o            ",
"             0  ..><*XX*<=<<<=<<<=o             ",
"             q   .e+<77=eo@...e+@               ",
"             5      X.yoOOOXXXXX                ",
"             5        #####oXXX                 ",
"                      +uu+ yyyy                 ",
"                      OOOO @@@@@                ",
"                      #####u@@@                 ",
"                      ++++  **                  ",
"                      11<  <<=                  ",
"                      88>  <<                   ",
"                      88   <<<                  ",
"                      88                        ",
"                                                ",
"                                                ",
"                                                "
};
