/* XPM */
static char *_1f4c33b0ee04291ea36439500cccbc1IdLEe1F6ZDiIuORV[] = {
/* columns rows colors chars-per-pixel */
"48 48 64 1 ",
"  c None",
". c #260101",
"X c #350101",
"o c #4B0707",
"O c #650000",
"+ c #730707",
"@ c #5E0823",
"# c #990000",
"$ c #A20909",
"% c #993300",
"& c #CC3333",
"* c #9E6031",
"= c #A37138",
"- c #D74C1C",
"; c #ED6E2E",
": c #ED7358",
"> c #C78658",
", c #F59F4A",
"< c #EE8F59",
"1 c #C28661",
"2 c #E5A965",
"3 c #2E53CC",
"4 c #69A1DB",
"5 c #B6B488",
"6 c #EDB58E",
"7 c #E6BF93",
"8 c #F5C69F",
"9 c #F7DCBF",
"0 c #FFFFCC",
"q c #FCFAD2",
"w c #340000",
"e c #260212",
"r c #65092E",
"t c #9E0E0E",
"y c #CB3232",
"u c #330000",
"i c #460505",
"p c #660000",
"a c #B6411D",
"s c black",
"d c black",
"f c black",
"g c black",
"h c black",
"j c black",
"k c black",
"l c black",
"z c black",
"x c black",
"c c black",
"v c black",
"b c black",
"n c black",
"m c black",
"M c black",
"N c black",
"B c black",
"V c black",
"C c black",
"Z c black",
"A c black",
"S c black",
"D c black",
"F c black",
/* pixels */
"                                                ",
"                                                ",
"                                                ",
"                                                ",
"                 66666      >266                ",
"                  997>><y++#*>1                 ",
"                   99>2-y++#*>1                 ",
"             3     82><&y@@p#:2                 ",
"            433    1=>:t+@@@pa                  ",
"           44933    >2y+*2221$y                 ",
"           44933    -&$%68886>%                 ",
"            433     yya%6*771>@                 ",
"            q4      o#-=18887*                  ",
"           5775      &&#a:::=@                  ",
"             3         >%$ya#                   ",
"            4 3       :8a#op$$                  ",
"            4 3      &&=1o#$==                  ",
"             4      &y&++1+a1=                  ",
"             5     &&&&+i*1>1+O                 ",
"            433   &&&&&+ii*r+i+&                ",
"             3   &y&&&y+iooooo+&                ",
"             5  &&&&&&ai.XXXXX@a&               ",
"             9 &&&&&&y+$a&;;;;at&;              ",
"             q--&&&&&aO$y;,2,,aOa;>             ",
"             9;-&&&&a+o..X>+a*Xo#&;;            ",
"            &9--&&&a+OX.io>+a*oi@%y-            ",
"            &9a-&yapp@.ioo>+a*oi++aa            ",
"            &9>&-%++puiooo>+a*oow%a+            ",
"            &9&$aa+pXioooo>+a*ooioO=            ",
"             9y%%%+.iooooo>+a*oooo+7            ",
"            181p+puio1oooo>+a*ooo+=7            ",
"            128 ++io$*>@iX>+a*XoO>%+            ",
"            111i-+o%+o%a@u>+a*u+>oX$.           ",
"             9 i-+$+ooo%a.>+a*@$piu>.           ",
"             0 u*>%r@iii*>>+1=apr*7=.           ",
"             0  ..=21===1>222>*=>1.             ",
"             7    .o*===o@o@@X*+..              ",
"             5        #####oXue                 ",
"                      pppp @@@@@                ",
"                      #####p@@@                 ",
"                      ++++  **                  ",
"                      221  11=                  ",
"                      88>  11                   ",
"                      88   111                  ",
"                      88                        ",
"                                                ",
"                                                ",
"                                                "
};
