/* XPM */
static char *result[] = {
/* columns rows colors chars-per-pixel */
"48 48 188 2 ",
"   c #2D0303",
".  c #320302",
"X  c #3A0504",
"o  c #370C07",
"O  c #3B100A",
"+  c #440304",
"@  c #4B0606",
"#  c #450D08",
"$  c #4C0A0A",
"%  c #530000",
"&  c #5C0201",
"*  c #5B0D07",
"=  c #510D0A",
"-  c #5C0D0D",
";  c #43140E",
":  c #4E160D",
">  c #57150C",
",  c #5D140B",
"<  c #4A1A11",
"1  c #5A1814",
"2  c #650000",
"3  c #6D0101",
"4  c #690C0C",
"5  c #720403",
"6  c #7B0000",
"7  c #770909",
"8  c #790D0C",
"9  c #621902",
"0  c #681903",
"q  c #63130B",
"w  c #641B0C",
"e  c #6F1E0E",
"r  c #7A1401",
"t  c #77180A",
"y  c #6A1413",
"u  c #77191A",
"i  c #7B191A",
"p  c #5A231A",
"a  c #7F260A",
"s  c #66291A",
"d  c #7A2216",
"f  c #752B11",
"g  c #7A3215",
"h  c #5C3D2F",
"j  c #762C23",
"k  c #6E3327",
"l  c #7A3D30",
"z  c #7F4028",
"x  c #7C4B37",
"c  c #7E5341",
"v  c #830000",
"b  c #8A0000",
"n  c #8C1205",
"m  c #861211",
"M  c #8A1815",
"N  c #8A1C1B",
"B  c #951818",
"V  c #921C1C",
"C  c #8E2805",
"Z  c #852A0F",
"A  c #94270A",
"S  c #9D3706",
"D  c #882B11",
"F  c #9F2712",
"G  c #883817",
"H  c #9F3C11",
"J  c #B52B13",
"K  c #A23717",
"L  c #942621",
"P  c #9C2021",
"I  c #982C27",
"U  c #873726",
"Y  c #823C2E",
"T  c #993020",
"R  c #A22323",
"E  c #A82D27",
"W  c #AD2929",
"Q  c #B42727",
"!  c #B72E24",
"~  c #B52A2A",
"^  c #BB2C2C",
"/  c #B33729",
"(  c #B43829",
")  c #C6381B",
"_  c #C32F2F",
"`  c #C6382B",
"'  c #C52E30",
"]  c #C73231",
"[  c #CC3333",
"{  c #CC3C3B",
"}  c #D13D33",
"|  c #974418",
" . c #A54A19",
".. c #B94917",
"X. c #A7501D",
"o. c #B25A1F",
"O. c #B06F1F",
"+. c #87442A",
"@. c #974628",
"#. c #874734",
"$. c #984735",
"%. c #8E5039",
"&. c #955438",
"*. c #A44726",
"=. c #B34326",
"-. c #A85D28",
";. c #B25822",
":. c #A64B36",
">. c #BE4433",
",. c #A1563A",
"<. c #B75635",
"1. c #A5653A",
"2. c #A36A3A",
"3. c #AC7039",
"4. c #C74622",
"5. c #CD4426",
"6. c #D4492C",
"7. c #D94C2E",
"8. c #CD5728",
"9. c #DC532A",
"0. c #D95F2C",
"q. c #CF4231",
"w. c #D44232",
"e. c #DA4B30",
"r. c #DB5336",
"t. c #E05D32",
"y. c #CB6220",
"u. c #C57023",
"i. c #D66635",
"p. c #CE7433",
"a. c #E16534",
"s. c #E0783F",
"d. c #895A43",
"f. c #915D49",
"g. c #BE5143",
"h. c #9F6245",
"j. c #9A6B50",
"k. c #A6664A",
"l. c #A97246",
"z. c #B47649",
"x. c #A87357",
"c. c #B47655",
"v. c #9C7D64",
"b. c #A87D65",
"n. c #C56D53",
"m. c #CD7D5F",
"M. c #DE7F6E",
"N. c #C28639",
"B. c #BB8558",
"V. c #A88A6F",
"C. c #BF9166",
"Z. c #C8884F",
"A. c #D88F47",
"S. c #D6944F",
"D. c #C38053",
"F. c #C1855F",
"G. c #C28661",
"H. c #CF966A",
"J. c #CC9274",
"K. c #D59B72",
"L. c #CAA06F",
"P. c #DBA57D",
"I. c #2D52CC",
"U. c #365AC9",
"Y. c #446CCC",
"T. c #5B7CCD",
"R. c #7183AB",
"E. c #588AD5",
"W. c #679BD6",
"Q. c #68A2DD",
"!. c #9F978F",
"~. c #8D9CAE",
"^. c #C0BF97",
"/. c #E0AC83",
"(. c #E6B084",
"). c #ECB68C",
"_. c #EEBD97",
"`. c #C5C395",
"'. c #E5C096",
"]. c #F8C493",
"[. c #F5C59F",
"{. c #C1CEBD",
"}. c #EEC9A7",
"|. c #F3CBAA",
" X c #F4D4B5",
".X c #88B4D7",
"XX c #F8DEC1",
"oX c None",
/* pixels */
"oXoXoXoXoXoXoXoXoXoXoXoXoXoXoXoXoXoXoXoXoXoXoXoXoXoXoXoXoXoXoXoXoXoXoXoXoXoXoXoXoXoXoXoXoXoXoXoX",
"oXoXoXoXoXoXoXoXoXoXoXoXoXoXoXoXoXoXoXoXoXoXoXoXoXoXoXoXoXoXoXoXoXoXoXoXoXoXoXoXoXoXoXoXoXoXoXoX",
"oXoXoXoXoXoXoXoXoXoXoXoXoXoXoXoXoXoXoXoXoXoXoXoXoXoXoXoXoXoXoXoXoXoXoXoXoXoXoXoXoXoXoXoXoXoXoXoX",
"oXoXoXoXoXoXoXoXoXoXoXoXoXoXoXoXoXoXoXoXoXoXoXoXoXoXoXoXoXoXoXoXoXoXoXoXoXoXoXoXoXoXoXoXoXoXoXoX",
"oXoXoXoXoXoXoXoXoXoXoXoXoXoXoXoXoXoXoXoXoXoXoXoXoXoXoXoXoXoXoXoXoXoXoXoXoXoXoXoXoXoXoXoXoXoXoXoX",
"oXoXoXoXoXoXoXoXoXoXoXoXoXoXoXoXoXoXoXoXoXoXoXoXoXoXoXoXoXoXoXoXoXoXoXoXoXoXoXoXoXoXoXoXoXoXoXoX",
"oXoXoXoXoXoXoXoXoXoXoXoXoXoXoXoXoXoXoXoXoXoXoXoXoXoXoXoXoXoXoXoXoXoXoXoXoXoXoXoXoXoXoXoXoXoXoXoX",
"oXoXoXoXoXoXoXoXoXoXoXoXoXoXoXoXoXoXoXoXoXoXoXoXoXoXoXoXoXoX)._.oXoXoXoXoXoXoXoXoXoXoXoXoXoXoXoX",
"oXoXoXoXoXoXoXoXoXoXoXoXoXoXoXoXoXoXoXoXoXoXoXoXoXl.3.2.oX|.|. XoXoXoXoXoXoXoXoXoXoXoXoXoXoXoXoX",
"oXoXoXoXoXoXoXoXoXoXoXoXoXoXoXoXoXoXoXoXoXoXoXoXg M <.D.K. XXXXXoXoXoXoXoXoXoXoXoXoXoXoXoXoXoXoX",
"oXoXoXoXoXoXoXoXoXoXoXoXoXoXoXoXoXoXoXoXoXoXoXoX5 m i.S.H.'.}.M.oXoXoXoXoXoXoXoXoXoXoXoXoXoXoXoX",
"oXoXoXoXoXoXoXoXoXoXoXoXoXoXoXoXoXoXoXoXoXoXoX6 8 ~ } s.Z.B.n.{ oXoXoXoXoXoXoXoXoXoXoXoXoXoXoXoX",
"oXoXoXoXoXoXoXoXoXoXoXoXoXoXoXoXoXoXoXoXoXoXoX6 q I ' r.A.3.>.[ [ oXoXoXoXoXoXoXoXoXoXoXoXoXoXoX",
"oXoXoXoXoXoXoXoXoXoXoXoXoXoXoXoXoXoXoXoXoXoXoX- k.c.I ] i.i.[ [ [ oXoXoXoXoXoXoXoXoXoXoXoXoXoXoX",
"oXoXoXoXoXoXoXoXoXoXoXoXoXoXoXoXoXoXoXoXoXoXoXoX(.K.*.N ] w.[ [ [ oXoXoXoXoXoXoXoXoXoXoXoXoXoXoX",
"oXoXoXoXoXoXoXoXoXoXoXoXoXoXoXoXoXoXoXoXoXoXoXoXP.k.G g R R ~ [ oXoXoXoXoXoXoXoXoXoXoXoXoXoXoXoX",
"oXoXoXoXoXoXoXoXoXoXoXoXoXoXoXoXoXoXoXoXoXoXoXoX]./.l f P R N i oXoXoXoXoXoXoXoXoXoXoXoXoXoXoXoX",
"oXoXoXoXoXoXoXoXoXoXoXoXoXoXoXoXoXoXoXoXoXoXoXoXoXj y 8 4 V oXoXoXoXoXoXoXoXoXoXoXoXoXoXoXoXoXoX",
"oXoXoXoXoXoXoXoXoXoXoXoXoXoXoXoXoXoXoXoXoXoXoXoXoXB B V N N oXoXoXoXoXoXoXoXoXoXoXoXoXoXoXoXoXoX",
"oXoXoXoXoXoXoXoXoXoXoXoXoXoXoXoXoXoXoXoXoXoXoXoXoXm.L M B m 2 oXoXoXoXoXoXoXoXoXoXoXoXoXoXoXoXoX",
"oXoXoXoXoXoXoXoXoXoXoXoXoXoXoXoXoXoXoXoXoXoXoXoXoXn.V ^ _ Q 7 2 oXoXoXoXoXoXoXoXoXoXoXoXoXoXoXoX",
"oXoXoXoXoXoXoXoXoXoXoXoXoXoXoXoXoXoXoXoXoXoXoXoXN.s W [ [ [ Q 7 2 oXoXoXoXoXoXoXoXoXoXoXoXoXoXoX",
"oXoXoXoXoXoXoXoXoXoXoXoXoXoXoXoXoXoXoXoXB.2.oXoXT X W [ [ [ [ Q 7 2 oXoXoXoXoXoXoXoXoXoXoXoXoXoX",
"oXoXoXoXoXoXoXoXoXoXoXoXoXoXoXoXoXoXoXoXc.-.S ` P X i [ [ [ [ [ Q 7 2 oXoXoXoXoXoXoXoXoXoXoXoXoX",
"oXoXoXoXoXoXoXoXoXoXU.oXoXoXW.oXoXoXoXoX1.=...` 8 + $ ^ [ [ [ [ [ Q 7 r oXoXoXoXoXoXoXoXoXoXoXoX",
"oXoXoXoXoXoXoXoXoXoXI.oXoXoX.X`.oXoXoXoXoXw.0.8.t * . - R Q [ ~ [ [ Q A r oXoXoXoXoXoXoXoXoXoXoX",
"oXoXoXoXoXoXoXoXoXoXI.I.I.T.{.~.W.Q.oXoXoXw.i.8.H u.;.| * 3 M R [ [ [ 5.C C oXoXoXoXoXoXoXoXoXoX",
"oXoXoXoXoXoXoXoXoXoXoXoXoXoX^.U.Y.E.oXoXoX{ 5.) a O.y.D X & 8 ^ [ [ [ r.8.A oXoXoXoXoXoXoXoXoXoX",
"oXoXoXoXoXoXoXoXoXoXoXoXoXoXoXoXI.U.R.Y.Q.oX` ..0 Z q . o D F ] [ [ [ 7.) 4.4 oXoXoXoXoXoXoXoXoX",
"oXoXoXoXoXoXoXoXoXoXoXoXoXoXoXoXoXoXoXI.Y.!.J.,.f Z q X d K n 5.t.w.w.5.J 9.y . 9 oXoXoXoXoXoXoX",
"oXoXoXoXoXoXoXoXoXoXoXoXoXoXoXoXoXoXoXoXoXoXoXb.L.z.> . i ! J 5.i.) ) 8.a.e.y 9 9 :.oXoXoXoXoXoX",
"oXoXoXoXoXoXoXoXoXoXoXoXoXoXoXoXoXoXoXoXoXoXoXoX&.C.v.v.f.g.q.6.6.) ) 9.q.u : g = :.< oXoXoXoXoX",
"oXoXoXoXoXoXoXoXoXoXoXoXoXoXoXoXoXoXoXoXoXoXoXoXo., k x.).H.Y - E ( / / L   # X., ,.< oXoXoXoXoX",
"oXoXoXoXoXoXoXoXoXoXoXoXoXoXoXoXoXoXoXoXoXoXoXoX .@ @ # d.j.x h # X e > . . + e *.z O oXoXoXoXoX",
"oXoXoXoXoXoXoXoXoXoXoXoXoXoXoXoXoXoXoXoXoXoXoXU @.= @ g G = p c V.x ;.Z , @ + s @.O oXoXoXoXoXoX",
"oXoXoXoXoXoXoXoXoXoXoXoXoXoXoXoXoXoXoXoXoXoXoXoXs #.G G e | w $ s d.l., a d Y d.; oXoXoXoXoXoXoX",
"oXoXoXoXoXoXoXoXoXoXoXoXoXoXoXoXoXoXoXoXoXoXoXoX. x z.; $ w G * + , ;.: %.<.%.1 oXoXoXoXoXoXoXoX",
"oXoXoXoXoXoXoXoXoXoXoXoXoXoXoXoXoXoXoXoXoXoXoXoXoX$ l x.&.p s *.j g p.k.#.< oXoXoXoXoXoXoXoXoXoX",
"oXoXoXoXoXoXoXoXoXoXoXoXoXoXoXoXoXoXoXoXoXoXoXoXoXoX= 1 < +.h.c.x.,.+.1 $ oXoXoXoXoXoXoXoXoXoXoX",
"oXoXoXoXoXoXoXoXoXoXoXoXoXoXoXoXoXoXoXoXoXoXoXoXoXoXoXoX% % & @ $ s < oXoXoXoXoXoXoXoXoXoXoXoXoX",
"oXoXoXoXoXoXoXoXoXoXoXoXoXoXoXoXoXoXoXoXoXoXoXoXoXoXoXb v v v 2 s 1.l.oXoXoXoXoXoXoXoXoXoXoXoXoX",
"oXoXoXoXoXoXoXoXoXoXoXoXoXoXoXoXoXoXoXoXoXoXoXoXoXoXoXoX2 2 2 oXoXF.F.oXoXoXoXoXoXoXoXoXoXoXoXoX",
"oXoXoXoXoXoXoXoXoXoXoXoXoXoXoXoXoXoXoXoXoXoXoXoXoXoXoX3 3 3 3 3 oXG.G.oXoXoXoXoXoXoXoXoXoXoXoXoX",
"oXoXoXoXoXoXoXoXoXoXoXoXoXoXoXoXoXoXoXoXoXoXoXoXoXoXoXb v v v b oXG.oXoXoXoXoXoXoXoXoXoXoXoXoXoX",
"oXoXoXoXoXoXoXoXoXoXoXoXoXoXoXoXoXoXoXoXoXoXoXoXoXoXoXoX$.,.U oXoXoXoXoXoXoXoXoXoXoXoXoXoXoXoXoX",
"oXoXoXoXoXoXoXoXoXoXoXoXoXoXoXoXoXoXoXoXoXoXoXoXoXoXoXoX_./.P.oXoXoXoXoXoXoXoXoXoXoXoXoXoXoXoXoX",
"oXoXoXoXoXoXoXoXoXoXoXoXoXoXoXoXoXoXoXoXoXoXoXoXoXoXoXoXoX[.[.oXoXoXoXoXoXoXoXoXoXoXoXoXoXoXoXoX",
"oXoXoXoXoXoXoXoXoXoXoXoXoXoXoXoXoXoXoXoXoXoXoXoXoXoXoXoXoX[.[.oXoXoXoXoXoXoXoXoXoXoXoXoXoXoXoXoX"
};
