/* XPM */
static char *result[] = {
/* columns rows colors chars-per-pixel */
"48 48 181 2 ",
"   c #260100",
".  c #2B0201",
"X  c #330302",
"o  c #3C0303",
"O  c #33020B",
"+  c #39090C",
"@  c #2A0113",
"#  c #370A17",
"$  c #430505",
"%  c #490505",
"&  c #480900",
"*  c #4A0A05",
"=  c #550606",
"-  c #5D0101",
";  c #540E0B",
":  c #4E1707",
">  c #46150C",
",  c #55120E",
"<  c #5B150C",
"1  c #511A0D",
"2  c #5C1B0C",
"3  c #410D10",
"4  c #440C1B",
"5  c #540E11",
"6  c #431517",
"7  c #4F1817",
"8  c #5E1813",
"9  c #650101",
"0  c #6C0202",
"q  c #630B0B",
"w  c #6B0E0B",
"e  c #710101",
"r  c #7D0000",
"t  c #750A09",
"y  c #7A0B0B",
"u  c #641B0C",
"i  c #6C1D0C",
"p  c #7A1B01",
"a  c #740F10",
"s  c #651412",
"d  c #6D1615",
"f  c #601E17",
"g  c #751313",
"h  c #7D1414",
"j  c #5A240D",
"k  c #4F2014",
"l  c #552316",
"z  c #5B291B",
"x  c #6F210A",
"c  c #77200D",
"v  c #75300D",
"b  c #672716",
"n  c #602518",
"m  c #662E1D",
"M  c #752715",
"N  c #6A321F",
"B  c #7B3A12",
"V  c #580728",
"C  c #61092C",
"Z  c #692B21",
"A  c #6D3525",
"S  c #7A3D26",
"D  c #784835",
"F  c #820000",
"G  c #851211",
"H  c #8A1213",
"J  c #911616",
"K  c #941B1B",
"L  c #9C1B1B",
"P  c #A21E1E",
"I  c #812B0D",
"U  c #942E08",
"Y  c #862B1A",
"T  c #8C371C",
"R  c #95371F",
"E  c #B72D0F",
"W  c #B72511",
"Q  c #BA2B14",
"!  c #A23613",
"~  c #B73719",
"^  c #9A2222",
"/  c #9C2923",
"(  c #8A3B26",
")  c #983027",
"_  c #A32524",
"`  c #AA2424",
"'  c #A42927",
"]  c #A42C2B",
"[  c #AC2929",
"{  c #B22626",
"}  c #B32924",
"|  c #B62929",
" . c #BA2A2A",
".. c #C33C19",
"X. c #C22E2E",
"o. c #C83E29",
"O. c #CC3333",
"+. c #CE3A34",
"@. c #99471A",
"#. c #9B4A1D",
"$. c #AC431F",
"%. c #AB551C",
"&. c #B7501F",
"*. c #854728",
"=. c #874728",
"-. c #8E432B",
";. c #96482A",
":. c #9C4A2C",
">. c #8B4C36",
",. c #8B4A3B",
"<. c #944833",
"1. c #975538",
"2. c #A14D23",
"3. c #B35A20",
"4. c #BB4A34",
"5. c #B45534",
"6. c #9B6734",
"7. c #A7723A",
"8. c #C1561D",
"9. c #CB4727",
"0. c #D74A2C",
"q. c #D15E2C",
"w. c #D44032",
"e. c #D44B33",
"r. c #D84F39",
"t. c #C05339",
"y. c #DB5936",
"u. c #C96B3A",
"i. c #DB6D34",
"p. c #DC7938",
"a. c #825540",
"s. c #9E5842",
"d. c #9F6046",
"f. c #A36447",
"g. c #A86A4E",
"h. c #B6644C",
"j. c #AE7544",
"k. c #BA7C4D",
"l. c #B66F52",
"z. c #AC7355",
"x. c #AB7A5C",
"c. c #B07354",
"v. c #B87B5A",
"b. c #D04741",
"n. c #DD6F4E",
"m. c #BD8159",
"M. c #AB846F",
"N. c #B48766",
"B. c #BB9D7A",
"V. c #DF8642",
"C. c #D48E4C",
"Z. c #C48852",
"A. c #D08F54",
"S. c #E18257",
"D. c #C28662",
"F. c #C68B65",
"G. c #C78F6C",
"H. c #D28A68",
"J. c #C59967",
"K. c #D09D6F",
"L. c #DA9277",
"P. c #DEA777",
"I. c #DAA179",
"U. c #5B77BB",
"Y. c #7795B9",
"T. c #5883CE",
"R. c #6990C6",
"E. c #659EDD",
"W. c #989F9A",
"Q. c #E4AD80",
"!. c #EDB98B",
"~. c #F2BD8D",
"^. c #EEB993",
"/. c #FAC795",
"(. c #FFCC99",
"). c #EBC7A0",
"_. c #F1C4A0",
"`. c #FCDAAB",
"'. c #F4D3B3",
"]. c #F7DDC0",
"[. c None",
/* pixels */
"[.[.[.[.[.[.[.[.[.[.[.[.[.[.[.[.[.[.[.[.[.[.[.[.[.[.[.[.[.[.[.[.[.[.[.[.[.[.[.[.[.[.[.[.[.[.[.[.",
"[.[.[.[.[.[.[.[.[.[.[.[.[.[.[.[.[.[.[.[.[.[.[.[.[.[.[.[.[.[.[.[.[.[.[.[.[.[.[.[.[.[.[.[.[.[.[.[.",
"[.[.[.[.[.[.[.[.[.[.[.[.[.[.[.[.[.[.[.[.[.[.[.[.[.[.[.[.[.[.[.[.[.[.[.[.[.[.[.[.[.[.[.[.[.[.[.[.",
"[.[.[.[.[.[.[.[.[.[.[.[.[.[.[.[.[.[.[.[.[.[.[.[.[.[.[.[.[.[.[.[.[.[.[.[.[.[.[.[.[.[.[.[.[.[.[.[.",
"[.[.[.[.[.[.[.[.[.[.[.[.[.[.[.[.[.[.[.[.[.[.[.[.[.[.[.[.[.[.[.[.[.[.[.[.[.[.[.[.[.[.[.[.[.[.[.[.",
"[.[.[.[.[.[.[.[.[.[.[.[.[.[.[.[.[.[.[.[.[.[.[.[.[.[.[.[.[.[.[.[.[.[.[.[.[.[.[.[.[.[.[.[.[.[.[.[.",
"[.[.[.[.[.[.[.[.[.[.[.[.[.[.[.[.[.[.[.[.[.^.[.[.[.[.[.[.[.[.[.[.[.[.[.[.[.[.[.[.[.[.[.[.[.[.[.[.",
"[.[.[.[.[.[.[.[.[.[.[.[.[.[.[.k.j.6.[._._.'.[.[.[.[.[.[.[.[.[.[.[.[.[.[.[.[.[.[.[.[.[.[.[.[.[.[.",
"[.[.[.[.[.[.[.[.[.[.[.[.[.[.=.T 5.k.I.'.].].[.[.[.[.[.[.[.[.[.[.[.[.[.[.[.[.[.[.[.[.[.[.[.[.[.[.",
"[.[.[.[.[.[.[.[.[.[.[.[.[.[.w y u.A.K.).'.[.[.[.[.[.[.[.[.[.[.[.[.[.[.[.[.[.[.[.[.[.[.[.[.[.[.[.",
"[.[.[.[.[.[.[.[.[.[.[.[.[.e y [ e.V.Z.J.H.b.[.[.[.[.[.[.[.[.[.[.[.[.[.[.[.[.[.[.[.[.[.[.[.[.[.[.",
"[.[.[.[.[.[.[.[.[.[.[.[.[.F q ' O.y.C.7.4.O.[.[.[.[.[.[.[.[.[.[.[.[.[.[.[.[.[.[.[.[.[.[.[.[.[.[.",
"[.[.[.[.[.[.[.[.[.[.[.[.[.; >.s.' +.p.u.O.O.O.[.[.[.[.[.[.[.[.[.[.[.[.[.[.[.[.[.[.[.[.[.[.[.[.[.",
"[.[.[.[.[.[.[.[.[.[.[.[.[.[.D.1.R _ +.r.O.O.O.[.[.[.[.[.[.[.[.[.[.[.[.[.[.[.[.[.[.[.[.[.[.[.[.[.",
"[.[.[.[.[.[.[.[.[.[.[.[.[.[.G.g.2.x [ | X.O.[.[.[.[.[.[.[.[.[.[.[.[.[.[.[.[.[.[.[.[.[.[.[.[.[.[.",
"[.[.[.[.[.[.[.[.[.[.[.[.[.[./.!.=.B ^ K K ^ [.[.[.[.[.[.[.[.[.[.[.[.[.[.[.[.[.[.[.[.[.[.[.[.[.[.",
"[.[.[.[.[.[.[.[.[.[.[.[.[.[.[.,.d a h _ d [.[.[.[.[.[.[.[.[.[.[.[.[.[.[.[.[.[.[.[.[.[.[.[.[.[.[.",
"[.[.[.[.[.[.[.[.[.[.[.[.[.[.[.H H G g h [.[.[.[.[.[.[.[.[.[.[.[.[.[.[.[.[.[.[.[.[.[.[.[.[.[.[.[.",
"[.[.[.[.[.[.[.[.[.[.[.[.[.[.[.h./ J J H [.[.[.[.[.[.[.[.[.[.[.[.[.[.[.[.[.[.[.[.[.[.[.[.[.[.[.[.",
"[.[.[.[.[.[.[.[.[.[.T.E.[.[.[.I.) ` H 0 9 [.[.[.[.[.[.[.[.[.[.[.[.[.[.[.[.[.[.[.[.[.[.[.[.[.[.[.",
"[.[.[.[.[.[.[.[.[.[.U.R.Y.[.[.1.[ O.O.{ t 0 [.[.[.[.[.[.[.[.[.[.[.[.[.[.[.[.[.[.[.[.[.[.[.[.[.[.",
"[.[.[.[.[.[.[.[.[.[.[.W.[.[.[.j [ O.O.O.{ y L [.[.[.[.[.[.[.[.[.[.[.[.[.[.[.[.[.[.[.[.[.[.[.[.[.",
"[.[.[.[.[.[.[.[.[.[.[.[.[.[.[.X [ O.O.O.O.H G X.[.[.[.[.[.[.[.[.[.[.[.[.[.[.[.[.[.[.[.[.[.[.[.[.",
"[.[.[.[.[.[.[.[.[.[.[.[.`.[.[.o [ O.O.O.O.| 0 ` O.[.[.[.[.[.[.[.[.[.[.[.[.[.[.[.[.[.[.[.[.[.[.[.",
"[.[.[.[.[.[.[.[.[.[.[.[.Q.F.f o _ O.O.O.O.O.J w [ O.[.[.[.[.[.[.[.[.[.[.[.[.[.[.[.[.[.[.[.[.[.[.",
"[.[.[.[.[.[.[.[.[.[.[.[.F.c.> & t | O.O.O.O.P - s O.O.[.[.[.[.[.[.[.[.[.[.[.[.[.[.[.[.[.[.[.[.[.",
"[.[.[.[.[.[.[.[.[.[.[.[.[.N.Y p p J O.O.O.O. .t = ^ O.O.[.[.[.[.[.[.[.[.[.[.[.[.[.[.[.[.[.[.[.[.",
"[.[.[.[.[.[.[.[.[.[.[.[.[.B.t.&.! G  .O.O.O.O.J - 9 ` O.O.[.[.[.[.[.[.[.[.[.[.[.[.[.[.[.[.[.[.[.",
"[.[.[.[.[.[.[.[.[.[.[.[.[.[.P.~ ~ +.O.O.O.O.O.X.q o 0 ` O.[.[.[.[.[.[.[.[.[.[.[.[.[.[.[.[.[.[.[.",
"[.[.[.[.[.[.[.[.[.[.[.[.[.[.L.S.q.9.w.O.O.O.O.X.q   X = G [.[.[.[.[.[.[.[.[.[.[.[.[.[.[.[.[.[.[.",
"[.[.[.[.[.[.[.[.[.[.[.[.[.! ,.L.y.W 0.O.O.O.O.{ - . o X o [.[.[.[.[.[.[.[.[.[.[.[.[.[.[.[.[.[.[.",
"[.[.[.[.[.[.[.[.[.[.[.[.[.u * M.n.W Q 0.0.o.} t o . $ $ b > . [.[.[.[.[.[.[.[.[.[.[.[.[.[.[.[.[.",
"[.[.[.[.[.[.[.[.[.[.[.[.[.. $ S v.e.i...E 8.U & . o % % b %.I : [.[.[.[.[.[.[.[.[.[.[.[.[.[.[.[.",
"[.[.[.[.[.[.[.[.[.[.[.[.[.. 2 #.a.] r.9.Y x v 1 $ % % % < 3.:.m [.[.[.[.[.[.[.[.[.[.[.[.[.[.[.[.",
"[.[.[.[.[.[.[.[.[.[.[.[.[.X T M 3 M s 5 O 2 3.M $ % % % < %.:.N [.[.[.[.[.[.[.[.[.[.[.[.[.[.[.[.",
"[.[.[.[.[.[.[.[.[.[.[.[.[.z z.d.( I X $ x @.i c < $ % % ; $.1.l [.[.[.[.[.[.[.[.[.[.[.[.[.[.[.[.",
"[.[.[.[.[.[.[.[.[.[.[.[.[.<.6 4 -.( + n #.< $ $ i u ; ; < 5.A   [.[.[.[.[.[.[.[.[.[.[.[.[.[.[.[.",
"[.[.[.[.[.[.[.[.[.[.[.[.[.[.# V + D x.k.;.b Z Z z -.c.v.f.n $ [.[.[.[.[.[.[.[.[.[.[.[.[.[.[.[.[.",
"[.[.[.[.[.[.[.[.[.[.[.[.[.[.[.C @ # 7 , A g.z.z.f.m < s , X [.[.[.[.[.[.[.[.[.[.[.[.[.[.[.[.[.[.",
"[.[.[.[.[.[.[.[.[.[.[.[.[.[.[.[.[.[.[.% k S *.>.8 % - 9 9 0 [.[.[.[.[.[.[.[.[.[.[.[.[.[.[.[.[.[.",
"[.[.[.[.[.[.[.[.[.[.[.[.[.[.[.[.[.[.[.[.[.[.m.D.[.[.9 0 r F r [.[.[.[.[.[.[.[.[.[.[.[.[.[.[.[.[.",
"[.[.[.[.[.[.[.[.[.[.[.[.[.[.[.[.[.[.[.[.[.[.D.D.[.[.0 r e 9 9 9 [.[.[.[.[.[.[.[.[.[.[.[.[.[.[.[.",
"[.[.[.[.[.[.[.[.[.[.[.[.[.[.[.[.[.[.[.[.[.[.[.[.[.[.[.F 9 9 0 0 e [.[.[.[.[.[.[.[.[.[.[.[.[.[.[.",
"[.[.[.[.[.[.[.[.[.[.[.[.[.[.[.[.[.[.[.[.[.[.[.[.[.[.[.[.9 0 r F F [.[.[.[.[.[.[.[.[.[.[.[.[.[.[.",
"[.[.[.[.[.[.[.[.[.[.[.[.[.[.[.[.[.[.[.[.[.[.[.[.[.[.[.[.[.r e ( l.[.[.[.[.[.[.[.[.[.[.[.[.[.[.[.",
"[.[.[.[.[.[.[.[.[.[.[.[.[.[.[.[.[.[.[.[.[.[.[.[.[.[.[.[.[.[.[.D.~.[.[.[.[.[.[.[.[.[.[.[.[.[.[.[.",
"[.[.[.[.[.[.[.[.[.[.[.[.[.[.[.[.[.[.[.[.[.[.[.[.[.[.[.[.[.[.[.[.(.[.[.[.[.[.[.[.[.[.[.[.[.[.[.[.",
"[.[.[.[.[.[.[.[.[.[.[.[.[.[.[.[.[.[.[.[.[.[.[.[.[.[.[.[.[.[.[.(.(.[.[.[.[.[.[.[.[.[.[.[.[.[.[.[."
};
