/* XPM */
static char *result[] = {
/* columns rows colors chars-per-pixel */
"48 48 173 2 ",
"   c #0F0F10",
".  c gray8",
"X  c #171716",
"o  c #1A1915",
"O  c gray11",
"+  c #201C15",
"@  c #262315",
"#  c #23211C",
"$  c #1A1E20",
"%  c #1D2022",
"&  c #1F2C33",
"*  c #242425",
"=  c #282521",
"-  c #2C2825",
";  c #262728",
":  c #26292A",
">  c #2A2B2B",
",  c #312E2C",
"<  c #35312D",
"1  c #3C352E",
"2  c #2C2F30",
"3  c #283339",
"4  c #333231",
"5  c #393531",
"6  c #3B3836",
"7  c #373738",
"8  c #36393A",
"9  c #393939",
"0  c #423D1D",
"q  c #443426",
"w  c #523923",
"e  c #543F2C",
"r  c #423D38",
"t  c #5D4026",
"y  c #5C432C",
"u  c #544434",
"i  c #5C4734",
"p  c #5D4937",
"a  c #55483C",
"s  c #5D4C3C",
"d  c #6C4A2A",
"f  c #724D2C",
"g  c #77502C",
"h  c #654D36",
"j  c #694F37",
"k  c #6D5037",
"l  c #67513B",
"z  c #745436",
"x  c #7A5736",
"c  c #7E5836",
"v  c #72553B",
"b  c #283D47",
"n  c #373E41",
"m  c #3B3F41",
"M  c #26404D",
"N  c #3E4245",
"B  c #2A4451",
"V  c #394D58",
"C  c #315466",
"Z  c #3D6376",
"A  c gray26",
"S  c #484746",
"D  c #494948",
"F  c #5B4E43",
"G  c #434D52",
"H  c #4F585E",
"J  c #585857",
"K  c #655445",
"L  c #6E5946",
"P  c #775C42",
"I  c #755E48",
"U  c #7B664C",
"Y  c #7B744B",
"T  c #6F6359",
"R  c #756E5A",
"E  c #727454",
"W  c #525D63",
"Q  c #416167",
"!  c #5F6E77",
"~  c #646464",
"^  c #646B6F",
"/  c #686868",
"(  c #727063",
")  c #636E74",
"_  c #627179",
"`  c #6B7F7D",
"'  c #815A36",
"]  c #865F3B",
"[  c #87613E",
"{  c #84664B",
"}  c #87694D",
"|  c #8E6B4A",
" . c #966E49",
".. c #96704C",
"X. c #9B724D",
"o. c #896F56",
"O. c #9D7652",
"+. c #A17A56",
"@. c #A27C58",
"#. c #817A62",
"$. c #9F7F61",
"%. c #7D8061",
"&. c #98831B",
"*. c #AE9720",
"=. c #B3A434",
"-. c #D2B41E",
";. c #D8BD35",
":. c #DAC03D",
">. c #AC825B",
",. c #BD8754",
"<. c #8D9B66",
"1. c #AA8665",
"2. c #B08965",
"3. c #BB8F65",
"4. c #B59360",
"5. c #B3AA76",
"6. c #CBBA58",
"7. c #CD9766",
"8. c #CF9966",
"9. c #DDC447",
"0. c #EAD87C",
"q. c #446F85",
"w. c #40748E",
"e. c #427691",
"r. c #487B95",
"t. c #4A7E99",
"y. c #6B7C85",
"u. c #6D7D86",
"i. c #707F86",
"p. c #4C819D",
"a. c #72838C",
"s. c #608598",
"d. c #758893",
"f. c #7D8D96",
"g. c #7E8F98",
"h. c #5589A4",
"j. c #5C8FAA",
"k. c #5A90AC",
"l. c #6392AA",
"z. c #78A8BE",
"x. c #6FA6C2",
"c. c #81919A",
"v. c #A09181",
"b. c #BBBC8C",
"n. c #93A1A7",
"m. c #95A2AA",
"M. c #9BA8AE",
"N. c #9FBDAA",
"B. c #ABB1A4",
"V. c #A9B2B5",
"C. c #AAB5BB",
"Z. c #ECDB84",
"A. c #EEDE8B",
"S. c #D9D8AD",
"D. c #82B5CE",
"F. c #98B5C3",
"G. c #82B7D2",
"H. c #8BBCD6",
"J. c #89BDD9",
"K. c #94BED3",
"L. c #8EC2DD",
"P. c #9AC3D4",
"I. c #91C3DD",
"U. c #93C6E1",
"Y. c #9ACAE3",
"T. c #A5CEE4",
"R. c #ACD2E5",
"E. c #AED4E8",
"W. c #B6D8E9",
"Q. c #BCDBEB",
"!. c #C5CBCF",
"~. c #C3DACF",
"^. c None",
/* pixels */
"^.^.^.^.^.^.^.^.^.^.^.^.^.^.^.^.^.^.^.^.^.^.^.^.^.^.^.^.^.^.^.^.^.^.^.^.^.^.^.^.^.^.^.^.^.^.^.^.",
"^.^.^.^.^.^.^.^.^.^.^.^.^.^.^.^.^.^.^.^.^.^.^.^.^.^.^.^.^.^.^.^.^.^.^.^.^.^.^.^.^.^.^.^.^.^.^.^.",
"^.^.^.^.^.^.^.^.^.^.^.^.^.^.^.^.^.^.^.^.^.^.^.^.^.^.^.^.^.^.^.^.^.^.^.^.^.^.^.^.^.^.^.^.^.^.^.^.",
"^.^.^.^.^.^.^.^.^.^.^.^.^.^.^.^.^.^.^.^.^.~ ~ ~ 9 7 ^.^.^.^.^.^.^.^.^.^.^.^.^.^.^.^.^.^.^.^.^.^.",
"^.^.^.^.^.^.^.^.^.^.^.^.^.^.^.^.^.^.^.^.3.1.$.{ v r 7 7 ^.^.^.^.^.^.^.^.^.^.^.^.^.^.^.^.^.^.^.^.",
"^.^.^.^.^.^.^.^.^.^.^.^.^.^.^.^.^.^.^.@.I j h w w h r 7 > ^.^.^.^.^.^.^.^.^.^.^.^.^.^.^.^.^.^.^.",
"^.^.^.^.^.^.^.^.^.^.^.^.^.^.^.^.^.^.^.I $ $ M b O w h r > * ^.^.^.^.^.^.^.^.^.^.^.^.^.^.^.^.^.^.",
"^.^.^.^.^.^.^.^.^.^.-.^.^.^.^.^.^.^.^.S . & e.w.M O g u 7 > O ^.^.^.^.^.^.^.^.^.^.^.^.^.^.^.^.^.",
"^.^.^.^.^.^.^.^.^.^.-.^.^.^.^.^.^.^.^.D . 3 l.k.e.: ' s 7 > O ^.^.^.^.^.^.^.^.^.^.^.^.^.^.^.^.^.",
"^.^.^.^.^.^.^.^.^.^.^.-.^.^.^.^.^.^.T 7 . N R.J.r.: X.K 7 > O O ^.^.^.^.^.^.^.^.^.^.^.^.^.^.^.^.",
"^.^.^.^.^.^.^.^.^.^.^.;.^.^.^.^.^.8.P X . 8 F.I.h.b } L r > O O ^.^.^.^.^.^.^.^.^.^.^.^.^.^.^.^.",
"^.^.^.^.^.^.^.^.^.^.:.0.^.^.^.^.^.8.v . . X n F.z.q.2 | L * O O ^.^.^.^.^.^.^.^.^.^.^.^.^.^.^.^.",
"^.^.^.^.^.^.^.^.^.;.0.A.^.^.^.^.^.^.P O O . X ; : ; # | p O O O O ^.^.^.^.^.^.^.^.^.^.^.^.^.^.^.",
"^.^.^.^.^.^.^.^.^.;.Z.A.^.^.^.^.^.^.>.o.S O o X o d ..i = O O O O ^.^.^.^.^.^.^.^.^.^.^.^.^.^.^.",
"^.^.^.^.^.^.^.^.^.^.9.Z.^.^.^.^.^.^.^.L >.O...x f q q = O ; > O O ^.^.^.^.^.^.^.^.^.^.^.^.^.^.^.",
"^.^.^.^.^.^.^.^.^.^.^.^.^.^.^.^.^.^.^.5 u u u q q # > 2 * * * O O O ^.^.^.^.^.^.^.^.^.^.^.^.^.^.",
"^.^.^.^.^.^.^.^.^.^.^.^.^.^.^.^.^.^.^.9 . . X , y < ; * * O O O O O ^.^.^.^.^.^.^.^.^.^.^.^.^.^.",
"^.^.^.^.^.^.^.^.Q.Q.^.^.^.^.^.^.^.^.J S . . X - p j 1 % O O O O O O ^.^.^.^.^.^.^.^.^.^.^.^.^.^.",
"^.^.^.^.^.^.^.^.W.R.^.Q.Q.^.^.^.^.D W V . . . X 6  .a ; O O O O O O ^.^.^.^.^.^.^.^.^.^.^.^.^.^.",
"^.^.^.^.^.^.^.^.R.U.E.Q.E.^.^.^.^.d.s.C . . . X 6 >.F * O O O O O O O ^.^.^.^.^.^.^.^.^.^.^.^.^.",
"^.^.^.^.^.^.^.^.^.J.D.T.U.^.^.^.^.Y.x.C X X . X < } l - O O O O O O O ^.^.^.^.^.^.^.^.^.^.^.^.^.",
"^.^.^.^.^.^.^.^.^.^.h.J.I.L.G.K.P.H.j.B X X X X X 5 [ q O O O O O O O ^.^.^.^.^.^.^.^.^.^.^.^.^.",
"^.^.^.^.^.^.^.^.^.^.^.^.^.L.j.t.p.t.V X X X . . X 5 O.e O O O O O O O ^.^.^.^.^.^.^.^.^.^.^.^.^.",
"^.^.^.^.^.^.^.^.^.^.^.^.^.^.^.^.^.^ A . X X X . X 5 [ q O O O O O O O ^.^.^.^.^.^.^.^.^.^.^.^.^.",
"^.^.^.^.^.^.^.^.^.^.^.^.^.^.^.^.^./ A . . . . . X 6 +.u O O O O O O O ^.^.^.^.^.^.^.^.^.^.^.^.^.",
"^.^.^.^.^.^.^.^.^.^.^.^.^.^.^.^.^./ A . . X X . O J 2.K * O O O O O O ^.^.^.^.^.^.^.^.^.^.^.^.^.",
"^.^.^.^.^.^.^.^.^.^.^.^.^.^.^.^.^./ A . . . X . O J 2.K * O O O O O O ^.^.^.^.^.^.^.^.^.^.^.^.^.",
"^.^.^.^.^.^.^.^.^.^.^.^.^.^.^.^.^.S > . X X . . O J ..s * O O O O O O ^.^.^.^.^.^.^.^.^.^.^.^.^.",
"^.^.^.^.^.^.^.^.^.^.^.^.^.^.^.^.^.7 * . . . . # <.( +.F * O O O O O O ^.^.^.^.^.^.^.^.^.^.^.^.^.",
"^.^.^.^.^.^.^.^.^.^.^.^.^.^.^.^.^.7 * .   : y.` 6.#.2.K * O O O O O O ^.^.^.^.^.^.^.^.^.^.^.^.^.",
"^.^.^.^.^.^.^.^.^.^.^.^.^.^.^.^.^.U U Y E d.T.P.<.( O.s * O O O O O O ^.^.^.^.^.^.^.^.^.^.^.^.^.",
"^.^.^.^.^.^.^.^.^.^.^.^.^.^.^.^.^.7.4.5.S.~.U.J.p.H ] u * O O O O O O ^.^.^.^.^.^.^.^.^.^.^.^.^.",
"^.^.^.^.^.^.^.^.^.^.^.^.^.^.^.^.^.,.{ ^ B.b.N.z.Z m c u * O O O O O O O ^.^.^.^.^.^.^.^.^.^.^.^.",
"^.^.^.^.^.^.^.^.^.^.^.^.^.^.^.^.^.O.v.m.a.%.=.Q % 5 ' u * O O O O O O O ^.^.^.^.^.^.^.^.^.^.^.^.",
"^.^.^.^.^.^.^.^.^.^.^.^.^.^.^.^.^.V.n.f.y.E *.# X , z p > O O O O O O O ^.^.^.^.^.^.^.^.^.^.^.^.",
"^.^.^.^.^.^.^.^.^.^.^.^.^.^.^.^.C.n.f.u.G 0 &.+ . O 5 x i ; O O O O O O ^.^.^.^.^.^.^.^.^.^.^.^.",
"^.^.^.^.^.^.^.^.^.^.^.^.^.^.^.!.M.f.u.G O o @ X X X < x p ; O O O O O O ^.^.^.^.^.^.^.^.^.^.^.^.",
"^.^.^.^.^.^.^.^.^.^.^.^.^.^.!.M.c.u.G O . . . . X X 4 x p ; O O O O O O ^.^.^.^.^.^.^.^.^.^.^.^.",
"^.^.^.^.^.^.^.^.^.^.^.^.^.!.M.c.u.R e . X X . . X X < x p ; O O O O O O ^.^.^.^.^.^.^.^.^.^.^.^.",
"^.^.^.^.^.^.^.^.^.^.^.^.C.M.c.u.H v e . X X . . X X < x p ; O O O O O O O ^.^.^.^.^.^.^.^.^.^.^.",
"^.^.^.^.^.^.^.^.^.^.^.C.n.g.u._ m k t . X X . . X X 4 x p ; O O O O O O O ^.^.^.^.^.^.^.^.^.^.^.",
"^.^.^.^.^.^.^.^.^.^.C.n.g.u._ ^.7 k t . X X . . X X 4 x p ; O O O O O O O ^.^.^.^.^.^.^.^.^.^.^.",
"^.^.^.^.^.^.^.^.^.V.m.f.i._ ^.^.i j q . X X . . X X 4 c p ; O O O O O O O O ^.^.^.^.^.^.^.^.^.^.",
"^.^.^.^.^.^.^.^.V.m.f.a._ ^.^.7 z h ; X X X . . X X * i h 1 * O O O O O O O O ^.^.^.^.^.^.^.^.^.",
"^.^.^.^.^.^.^.^.m.f.a.) ^.^.^.7 z h ; X X X X X X . X > z h > O O O O O O O O O ^.^.^.^.^.^.^.^.",
"^.^.^.^.^.^.^.^.g.a.! ^.^.^.7 7 z h ; X X X X X X . X > z h > O O O O O O O O O ^.^.^.^.^.^.^.^.",
"^.^.^.^.^.^.^.^.^.^.^.^.^.^.^.^.^.^.^.^.^.^.^.^.^.^.^.^.^.^.^.^.^.^.^.^.^.^.^.^.^.^.^.^.^.^.^.^.",
"^.^.^.^.^.^.^.^.^.^.^.^.^.^.^.^.^.^.^.^.^.^.^.^.^.^.^.^.^.^.^.^.^.^.^.^.^.^.^.^.^.^.^.^.^.^.^.^."
};
