/* XPM */
static char *_b94d482b6aa49dcb8ff60feeb6aa23bTt2nPZza7lmZHu36[] = {
/* columns rows colors chars-per-pixel */
"48 48 5 1 ",
"  c #9B9593",
". c #C6BAA3",
"X c #828389",
"o c #696975",
"O c #52505E",
/* pixels */
"   ...............   XXXooo   .........   XXXooo",
"   ...............   XXXooo   .........   XXXooo",
"   ...............   XXXooo   .........   XXXooo",
"...XXXXXXXXXXXX         ooo...XXXXXX         ooo",
"...XXXXXXXXXXXX         ooo...XXXXXX         ooo",
"...XXXXXXXXXXXX         ooo...XXXXXX         ooo",
"...XXX                  ooo...XXX            ooo",
"...XXX                  ooo...XXX            ooo",
"...XXX                  ooo...XXX            ooo",
"...XXX                  ooo...XXX            ooo",
"...XXX                  ooo...XXX            ooo",
"...XXX                  ooo...XXX            ooo",
"...                     ooo...               ooo",
"...                     ooo...               ooo",
"...                     ooo...               ooo",
"......               XXXooo......         XXXooo",
"......               XXXooo......         XXXooo",
"......               XXXooo......         XXXooo",
"            XXXXXXXXXoooOOOXXXXXXXXXXXXXXXoooOOO",
"            XXXXXXXXXoooOOOXXXXXXXXXXXXXXXoooOOO",
"            XXXXXXXXXoooOOOXXXXXXXXXXXXXXXoooOOO",
"XXXXXXXXXXXXXXXXXXXXXXXXOOOXXXXXXXXXXXXXXXXXXOOO",
"XXXXXXXXXXXXXXXXXXXXXXXXOOOXXXXXXXXXXXXXXXXXXOOO",
"XXXXXXXXXXXXXXXXXXXXXXXXOOOXXXXXXXXXXXXXXXXXXOOO",
"   ...............   XXXooo   .........   XXXooo",
"   ...............   XXXooo   .........   XXXooo",
"   ...............   XXXooo   .........   XXXooo",
"...XXXXXXXXXXXX         ooo...XXXXXX         ooo",
"...XXXXXXXXXXXX         ooo...XXXXXX         ooo",
"...XXXXXXXXXXXX         ooo...XXXXXX         ooo",
"...XXX                  ooo...XXX            ooo",
"...XXX                  ooo...XXX            ooo",
"...XXX                  ooo...XXX            ooo",
"...XXX                  ooo...XXX            ooo",
"...XXX                  ooo...XXX            ooo",
"...XXX                  ooo...XXX            ooo",
"...                     ooo...               ooo",
"...                     ooo...               ooo",
"...                     ooo...               ooo",
"......               XXXooo......         XXXooo",
"......               XXXooo......         XXXooo",
"......               XXXooo......         XXXooo",
"            XXXXXXXXXoooOOOXXXXXXXXXXXXXXXoooOOO",
"            XXXXXXXXXoooOOOXXXXXXXXXXXXXXXoooOOO",
"            XXXXXXXXXoooOOOXXXXXXXXXXXXXXXoooOOO",
"XXXXXXXXXXXXXXXXXXXXXXXXOOOXXXXXXXXXXXXXXXXXXOOO",
"XXXXXXXXXXXXXXXXXXXXXXXXOOOXXXXXXXXXXXXXXXXXXOOO",
"XXXXXXXXXXXXXXXXXXXXXXXXOOOXXXXXXXXXXXXXXXXXXOOO"
};
