/* XPM */
static char *_1912acfc66b411dc2ccffe3fa1cc7819EgUBEoN64xZEJkz[] = {
/* columns rows colors chars-per-pixel */
"48 48 6 1 ",
"  c #9B9593",
". c #C6BAA3",
"X c #828389",
"o c #696975",
"O c #52505E",
"+ c #403B49",
/* pixels */
"   ...............   XXXooo   .........   XXXooo",
"   ...............   XXXooo   .........   XXXooo",
"   ...............   XXXooo   .........   XXXooo",
"...XXXXXXXXXXXX         ooo...XXXXXX         ooo",
"...XXXXXXXXXXXX         ooo...XXXXXX         ooo",
"...XXXXXXXXXXXX         ooo...XXXXXX         ooo",
"...XXX                  ooo...XXX            ooo",
"...XXX                  ooo...XXX            ooo",
"...XXX                  ooo...XXX            ooo",
"...XXX                  ooo...XXX            ooo",
"...XXX                  ooo...XXX            ooo",
"...XXX                  ooo...XXX            ooo",
"...                     ooo...               ooo",
"...                     ooo...               ooo",
"...                     ooo...               ooo",
"......               XXXooo......         XXXooo",
"......               XXXooo......         XXXooo",
"......               XXXooo......         XXXooo",
"            XXXXXXXXXoooOOOXXXXXXXXXXXXXXXoooOOO",
"            XXXXXXXXXoooOOOXXXXXXXXXXXXXXXoooOOO",
"            XXXXXXXXXoooOOOXXXXXXXXXXXXXXXoooOOO",
"XXXXXXXXXXXXXXXXXXXXXXXXOOOXXXXXXXXXXXXXXXXXXOOO",
"XXXXXXXXXXXXXXXXXXXXXXXXOOOXXXXXXXXXXXXXXXXXXOOO",
"XXXXXXXXXXXXXXXXXXXXXXXXOOOXXXXXXXXXXXXXXXXXXOOO",
"XXXOOOOOOOOOOOOoooooooooOOOXXXOOOOOOOOOOOOOOOOOO",
"XXXOOOOOOOOOOOOoooooooooOOOXXXOOOOOOOOOOOOOOOOOO",
"XXXOOOOOOOOOOOOoooooooooOOOXXXOOOOOOOOOOOOOOOOOO",
"XXXOOOooooooooooooooooooOOOXXXOOOooooooooooooOOO",
"XXXOOOooooooooooooooooooOOOXXXOOOooooooooooooOOO",
"XXXOOOooooooooooooooooooOOOXXXOOOooooooooooooOOO",
"XXXXXXXXXooooooooooooOOOOOOXXXXXXXXXooooooOOOOOO",
"XXXXXXXXXooooooooooooOOOOOOXXXXXXXXXooooooOOOOOO",
"XXXXXXXXXooooooooooooOOOOOOXXXXXXXXXooooooOOOOOO",
"++++++++++++++++++++++++++++++++++++++++++++++++",
"++++++++++++++++++++++++++++++++++++++++++++++++",
"++++++++++++++++++++++++++++++++++++++++++++++++",
"+++OOOOOOOOO+++++++++OOOOOOOOOOOOOOOOOOOOO++++++",
"+++OOOOOOOOO+++++++++OOOOOOOOOOOOOOOOOOOOO++++++",
"+++OOOOOOOOO+++++++++OOOOOOOOOOOOOOOOOOOOO++++++",
"      XXXoooOOO+++ooo         XXXXXXooooooOOO+++",
"      XXXoooOOO+++ooo         XXXXXXooooooOOO+++",
"      XXXoooOOO+++ooo         XXXXXXooooooOOO+++",
"XXXoooooooooooo+++XXX   ooooooooooooooooooOOO+++",
"XXXoooooooooooo+++XXX   ooooooooooooooooooOOO+++",
"XXXoooooooooooo+++XXX   ooooooooooooooooooOOO+++",
"oooooooooOOOOOO+++oooXXXXXXooooooOOOOOOOOO++++++",
"oooooooooOOOOOO+++oooXXXXXXooooooOOOOOOOOO++++++",
"oooooooooOOOOOO+++oooXXXXXXooooooOOOOOOOOO++++++"
};
